<svg width="32" height="45" viewBox="0 0 32 45" fill="none" xmlns="http://www.w3.org/2000/svg">
<path d="M16.3549 1.62598C8.36446 1.62598 1.88168 7.79617 1.88168 15.3956C1.88168 24.1398 11.5305 37.9969 15.0734 42.783C15.2204 42.9851 15.4132 43.1495 15.6359 43.2628C15.8586 43.3762 16.105 43.4353 16.3549 43.4353C16.6047 43.4353 16.8511 43.3762 17.0738 43.2628C17.2965 43.1495 17.4893 42.9851 17.6363 42.783C21.1792 37.9989 30.828 24.1468 30.828 15.3956C30.828 7.79617 24.3452 1.62598 16.3549 1.62598Z" stroke="#E214FF" stroke-width="2" stroke-linecap="round" stroke-linejoin="round"/>
<path d="M16.3548 20.9237C19.0193 20.9237 21.1792 18.7637 21.1792 16.0993C21.1792 13.4349 19.0193 11.2749 16.3548 11.2749C13.6904 11.2749 11.5305 13.4349 11.5305 16.0993C11.5305 18.7637 13.6904 20.9237 16.3548 20.9237Z" stroke="#E214FF" stroke-width="2" stroke-linecap="round" stroke-linejoin="round"/>
</svg>
