<svg width="70" height="22" viewBox="0 0 70 22" fill="none" xmlns="http://www.w3.org/2000/svg">
<g clip-path="url(#clip0_124_328)">
<path d="M43.6248 16.7502C39.598 19.7122 33.7615 21.2925 28.7364 21.2925C21.6903 21.2925 15.3471 18.6918 10.5482 14.3662C10.1711 14.0261 10.5089 13.5625 10.9614 13.8274C16.1404 16.8345 22.5439 18.6436 29.1587 18.6436C33.6198 18.6436 38.5273 17.7225 43.0396 15.8111C43.7213 15.5221 44.2914 16.2566 43.6248 16.7502Z" fill="#FF9900"/>
<path d="M45.2988 14.8389C44.786 14.1827 41.8964 14.5289 40.5994 14.6824C40.2043 14.7306 40.144 14.3874 40.4999 14.1406C42.8013 12.5242 46.5777 12.9907 47.0181 13.5326C47.4585 14.0774 46.9035 17.8551 44.7408 19.6581C44.409 19.935 44.0923 19.7876 44.2401 19.4203C44.7257 18.2103 45.8146 15.4982 45.2988 14.8389" fill="#FF9900"/>
<path d="M40.6899 2.72935V1.15808C40.6899 0.920277 40.8709 0.760742 41.0881 0.760742H48.1371C48.3634 0.760742 48.5443 0.923288 48.5443 1.15808V2.50359C48.5413 2.72935 48.3513 3.02434 48.0135 3.4909L44.3607 8.69537C45.7181 8.66226 47.1508 8.86393 48.3815 9.55626C48.659 9.71278 48.7344 9.94155 48.7555 10.1673V11.8439C48.7555 12.0727 48.5021 12.3406 48.2367 12.2021C46.068 11.0673 43.1874 10.9439 40.7895 12.2142C40.5451 12.3466 40.2888 12.0817 40.2888 11.853V10.2606C40.2888 10.0048 40.2918 9.5683 40.5482 9.17999L44.78 3.12367H41.0971C40.8709 3.12367 40.6899 2.96414 40.6899 2.72935" fill="#221F1F"/>
<path d="M14.976 12.5333H12.8314C12.6263 12.5182 12.4634 12.3647 12.4484 12.169V1.18518C12.4484 0.965447 12.6324 0.79086 12.8616 0.79086H14.8614C15.0695 0.799885 15.2354 0.959425 15.2505 1.15809V2.59391H15.2897C15.8115 1.20625 16.7918 0.559082 18.113 0.559082C19.4552 0.559082 20.2937 1.20625 20.897 2.59391C21.4158 1.20625 22.5952 0.559082 23.859 0.559082C24.7578 0.559082 25.7412 0.929324 26.3414 1.76011C27.0201 2.68421 26.8813 4.02672 26.8813 5.20367L26.8783 12.1359C26.8783 12.3557 26.6943 12.5333 26.4651 12.5333H24.3235C24.1093 12.5182 23.9374 12.3466 23.9374 12.1359V6.31439C23.9374 5.85084 23.9796 4.69496 23.8771 4.25548C23.7172 3.51801 23.2376 3.31031 22.6163 3.31031C22.0975 3.31031 21.5545 3.65647 21.3344 4.21033C21.1142 4.76419 21.1353 5.6913 21.1353 6.31439V12.1359C21.1353 12.3557 20.9513 12.5333 20.722 12.5333H18.5805C18.3633 12.5182 18.1944 12.3466 18.1944 12.1359L18.1914 6.31439C18.1914 5.08928 18.3935 3.28623 16.8702 3.28623C15.3289 3.28623 15.3892 5.04413 15.3892 6.31439V12.1359C15.3892 12.3557 15.2053 12.5333 14.976 12.5333Z" fill="#221F1F"/>
<path d="M54.6131 0.559082C57.7953 0.559082 59.5176 3.28623 59.5176 6.75387C59.5176 10.1041 57.6143 12.762 54.6131 12.762C51.4882 12.762 49.787 10.0349 49.787 6.63647C49.787 3.217 51.5094 0.559082 54.6131 0.559082M54.6312 2.80161C53.0507 2.80161 52.9511 4.95082 52.9511 6.29031C52.9511 7.63282 52.93 10.4984 54.6131 10.4984C56.2751 10.4984 56.3535 8.18668 56.3535 6.77795C56.3535 5.85084 56.3143 4.74312 56.0338 3.86417C55.7925 3.09961 55.3129 2.80161 54.6312 2.80161" fill="#221F1F"/>
<path d="M63.6439 12.5333H61.5084C61.2942 12.5182 61.1223 12.3466 61.1223 12.1359L61.1193 1.14906C61.1374 0.947385 61.3153 0.79086 61.5325 0.79086H63.5202C63.7072 0.799885 63.8611 0.926315 63.9033 1.09789V2.77753H63.9425C64.5428 1.27549 65.3843 0.559082 66.8653 0.559082C67.8275 0.559082 68.7656 0.905244 69.3688 1.85342C69.9298 2.73237 69.9298 4.21033 69.9298 5.2729V12.1871C69.9057 12.3797 69.7278 12.5333 69.5166 12.5333H67.366C67.1699 12.5182 67.0071 12.3737 66.9859 12.1871V6.22108C66.9859 5.02005 67.1247 3.26215 65.6437 3.26215C65.1219 3.26215 64.6423 3.61132 64.404 4.1411C64.1024 4.81235 64.0632 5.4806 64.0632 6.22108V12.1359C64.0601 12.3557 63.8731 12.5333 63.6439 12.5333" fill="#221F1F"/>
<path d="M6.95597 7.28654V6.82299C5.40559 6.82299 3.76775 7.1541 3.76775 8.97822C3.76775 9.90232 4.24734 10.5284 5.07079 10.5284C5.67404 10.5284 6.21396 10.1582 6.5548 9.55616C6.97708 8.81567 6.95597 8.12034 6.95597 7.28654M9.11865 12.503C8.97688 12.6295 8.77177 12.6385 8.61191 12.5542C7.90007 11.9642 7.77338 11.6903 7.38126 11.1274C6.20491 12.3255 5.37242 12.6837 3.84617 12.6837C2.04243 12.6837 0.636841 11.5729 0.636841 9.34846C0.636841 7.61163 1.58094 6.42866 2.92319 5.85072C4.08748 5.33901 5.71326 5.2487 6.95597 5.10723V4.8303C6.95597 4.32159 6.99518 3.71957 6.69657 3.2801C6.43415 2.88577 5.93345 2.72323 5.49307 2.72323C4.67565 2.72323 3.94571 3.14163 3.76775 4.00854C3.73155 4.20119 3.58979 4.39083 3.39675 4.39986L1.31551 4.17711C1.14056 4.13798 0.947518 3.9965 0.995779 3.7286C1.47537 1.21216 3.75267 0.453613 5.79168 0.453613C6.83532 0.453613 8.19868 0.730543 9.02213 1.51919C10.0658 2.49145 9.96622 3.7888 9.96622 5.20054V8.53573C9.96622 9.5381 10.3825 9.97757 10.7746 10.5194C10.9133 10.712 10.9435 10.9438 10.7686 11.0883C10.3312 11.4525 9.553 12.1298 9.12468 12.5091L9.11865 12.503" fill="#221F1F"/>
<path d="M34.7837 7.28654V6.82299C33.2334 6.82299 31.5955 7.1541 31.5955 8.97822C31.5955 9.90232 32.0751 10.5284 32.8985 10.5284C33.5018 10.5284 34.0417 10.1582 34.3826 9.55616C34.8048 8.81567 34.7837 8.12034 34.7837 7.28654M36.9464 12.503C36.8046 12.6295 36.5995 12.6385 36.4397 12.5542C35.7278 11.9642 35.6011 11.6903 35.209 11.1274C34.0327 12.3255 33.2002 12.6837 31.6739 12.6837C29.8702 12.6837 28.4646 11.5729 28.4646 9.34846C28.4646 7.61163 29.4087 6.42866 30.7509 5.85072C31.9152 5.33901 33.541 5.2487 34.7837 5.10723V4.8303C34.7837 4.32159 34.8229 3.71957 34.5243 3.2801C34.2619 2.88577 33.7612 2.72323 33.3208 2.72323C32.5034 2.72323 31.7735 3.14163 31.5955 4.00854C31.5593 4.20119 31.4175 4.39083 31.2245 4.39986L29.1433 4.17711C28.9683 4.13798 28.7753 3.9965 28.8235 3.7286C29.3031 1.21216 31.5804 0.453613 33.6194 0.453613C34.6631 0.453613 36.0264 0.730543 36.8499 1.51919C37.8935 2.49145 37.794 3.7888 37.794 5.20054V8.53573C37.794 9.5381 38.2102 9.97757 38.6024 10.5194C38.7411 10.712 38.7713 10.9438 38.5963 11.0883C38.159 11.4525 37.3808 12.1298 36.9524 12.5091L36.9464 12.503" fill="#221F1F"/>
</g>
<defs>
<clipPath id="clip0_124_328">
<rect width="69.3761" height="20.8964" fill="white" transform="translate(0.594727 0.425293)"/>
</clipPath>
</defs>
</svg>
