<svg width="242" height="49" viewBox="0 0 242 49" fill="none" xmlns="http://www.w3.org/2000/svg">
<g clip-path="url(#clip0_61_567)">
<path fill-rule="evenodd" clip-rule="evenodd" d="M235.065 36.7893C235.211 38.4606 236.54 40.5876 238.844 40.5876H240.192C240.714 40.5876 241.143 40.1571 241.143 39.6315V9.83075H241.137C241.11 9.32871 240.697 8.9266 240.192 8.9266H236.015C235.51 8.9266 235.098 9.32871 235.07 9.83075H235.065V12.2523C232.506 9.08125 228.472 7.76508 224.426 7.76508C215.229 7.76508 207.775 15.2653 207.775 24.5179C207.775 33.7709 215.229 41.2713 224.426 41.2713V41.2722C228.472 41.2722 232.88 39.6931 235.064 36.7854L235.065 36.7893ZM224.442 35.408C218.593 35.408 213.852 30.5328 213.852 24.5179C213.852 18.504 218.593 13.6285 224.442 13.6285C230.29 13.6285 235.032 18.504 235.032 24.5179C235.032 30.5328 230.29 35.408 224.442 35.408Z" fill="black"/>
<path fill-rule="evenodd" clip-rule="evenodd" d="M202.495 37.8143L202.493 22.3937H202.493C202.493 13.7012 197.042 7.8371 188.351 7.8371C184.202 7.8371 180.8 10.251 179.599 12.3245C179.339 10.7032 178.484 8.99889 175.831 8.99889H174.478C173.955 8.99889 173.528 9.42973 173.528 9.95542V36.864C173.528 36.8648 173.528 36.8669 173.528 36.8682V39.7586H173.533C173.561 40.2599 173.974 40.6626 174.479 40.6626H178.655C178.719 40.6626 178.782 40.6548 178.842 40.6429C178.87 40.6376 178.896 40.6267 178.923 40.6189C178.954 40.6095 178.986 40.602 179.016 40.5898C179.053 40.5743 179.086 40.5535 179.121 40.5341C179.138 40.5237 179.156 40.5164 179.172 40.5052C179.214 40.4783 179.252 40.4458 179.289 40.4126C179.295 40.4063 179.302 40.4025 179.308 40.3969C179.35 40.3564 179.388 40.3118 179.421 40.2655C179.422 40.2648 179.422 40.2648 179.422 40.2648C179.526 40.1203 179.59 39.9465 179.6 39.7586H179.605V22.1546C179.605 17.4861 183.367 13.7012 188.008 13.7012C192.649 13.7012 196.411 17.4861 196.411 22.1546L196.414 36.8691L196.415 36.864C196.415 36.8771 196.418 36.8905 196.418 36.9045V39.7586H196.423C196.451 40.2599 196.863 40.6626 197.368 40.6626H201.545C201.609 40.6626 201.672 40.6548 201.732 40.6429C201.757 40.6383 201.78 40.6284 201.804 40.6216C201.838 40.6117 201.873 40.6029 201.906 40.5898C201.94 40.5755 201.971 40.5557 202.003 40.5375C202.023 40.5263 202.044 40.5181 202.063 40.5052C202.101 40.48 202.137 40.4492 202.171 40.4187C202.18 40.4105 202.19 40.4044 202.198 40.3959C202.238 40.3576 202.273 40.3161 202.306 40.2728C202.308 40.2694 202.31 40.2667 202.313 40.2635C202.416 40.1203 202.479 39.9477 202.49 39.7612C202.49 39.76 202.49 39.7586 202.49 39.7586H202.496V37.8148L202.495 37.8143Z" fill="black"/>
<path fill-rule="evenodd" clip-rule="evenodd" d="M158.998 36.7893C159.144 38.4606 160.474 40.5876 162.777 40.5876H164.125C164.647 40.5876 165.075 40.1571 165.075 39.6315V9.83075H165.07C165.042 9.32871 164.629 8.9266 164.125 8.9266H159.948C159.443 8.9266 159.031 9.32871 159.003 9.83075H158.998V12.2523C156.439 9.08125 152.404 7.76508 148.358 7.76508C139.162 7.76508 131.708 15.2653 131.708 24.5179C131.708 33.7709 139.162 41.2713 148.358 41.2713V41.2722C152.404 41.2722 156.813 39.6931 158.997 36.7854L158.998 36.7893ZM148.374 35.408C142.526 35.408 137.785 30.5328 137.785 24.5179C137.785 18.504 142.526 13.6285 148.374 13.6285C154.223 13.6285 158.964 18.504 158.964 24.5179C158.964 30.5328 154.223 35.408 148.374 35.408Z" fill="black"/>
<path fill-rule="evenodd" clip-rule="evenodd" d="M107.009 32.5212C109.797 34.4645 112.84 35.4083 115.765 35.4083C118.551 35.4083 121.431 33.9552 121.431 31.4257C121.431 28.0487 115.155 27.5234 111.211 26.1748C107.267 24.8264 103.87 22.0389 103.87 17.5248C103.87 10.6175 109.987 7.76465 115.697 7.76465C119.315 7.76465 123.047 8.96484 125.467 10.6841C126.3 11.3194 125.793 12.0488 125.793 12.0488L123.483 15.3681C123.223 15.742 122.769 16.065 122.118 15.6603C121.466 15.2559 119.18 13.6282 115.697 13.6282C112.213 13.6282 110.115 15.2468 110.115 17.253C110.115 19.6587 112.842 20.4153 116.037 21.2353C121.604 22.745 127.676 24.5595 127.676 31.4257C127.676 37.5118 122.018 41.2727 115.765 41.2727C111.026 41.2727 106.991 39.9135 103.607 37.4153C102.902 36.7055 103.395 36.0466 103.395 36.0466L105.693 32.744C106.161 32.1266 106.751 32.3418 107.009 32.5212Z" fill="black"/>
<path fill-rule="evenodd" clip-rule="evenodd" d="M90.9526 36.7893C91.0987 38.4606 92.4284 40.5876 94.732 40.5876H96.08C96.6023 40.5876 97.0306 40.1571 97.0306 39.6315V9.83075H97.0248C96.9975 9.32871 96.5849 8.9266 96.08 8.9266H91.9034C91.3984 8.9266 90.9858 9.32871 90.9576 9.83075H90.9526V12.2523C88.3938 9.08125 84.3592 7.76508 80.3136 7.76508C71.1176 7.76508 63.6627 15.2653 63.6627 24.5179C63.6627 33.7709 71.1176 41.2713 80.3136 41.2713V41.2722C84.3592 41.2722 88.7683 39.6931 90.9521 36.7854L90.9526 36.7893ZM80.33 35.408C74.4813 35.408 69.7397 30.5328 69.7397 24.5179C69.7397 18.504 74.4813 13.6285 80.33 13.6285C86.1784 13.6285 90.9193 18.504 90.9193 24.5179C90.9193 30.5328 86.1784 35.408 80.33 35.408Z" fill="black"/>
<path fill-rule="evenodd" clip-rule="evenodd" d="M40.3184 25.6575C34.1297 25.6575 29.1129 30.7011 29.1129 36.9229C29.1129 43.1445 34.1297 48.1881 40.3184 48.1881C46.5071 48.1881 51.5238 43.1445 51.5238 36.9229C51.5238 30.7011 46.5071 25.6575 40.3184 25.6575ZM11.2055 25.6584C5.01693 25.6584 0 30.7011 0 36.9229C0 43.1445 5.01693 48.1881 11.2055 48.1881C17.3943 48.1881 22.4115 43.1445 22.4115 36.9229C22.4115 30.7011 17.3943 25.6584 11.2055 25.6584ZM36.9672 11.5758C36.9672 17.7978 31.9505 22.8419 25.762 22.8419C19.5731 22.8419 14.5564 17.7978 14.5564 11.5758C14.5564 5.35511 19.5731 0.311035 25.762 0.311035C31.9505 0.311035 36.9672 5.35511 36.9672 11.5758Z" fill="black"/>
</g>
<defs>
<clipPath id="clip0_61_567">
<rect width="241.143" height="48" fill="white" transform="translate(0 0.311035)"/>
</clipPath>
</defs>
</svg>
