<svg width="100" height="21" viewBox="0 0 100 21" fill="none" xmlns="http://www.w3.org/2000/svg">
<path fill-rule="evenodd" clip-rule="evenodd" d="M97.0528 15.4611C97.1125 16.1413 97.6566 17.0071 98.5993 17.0071H99.1509C99.3646 17.0071 99.54 16.8319 99.54 16.618V4.48779H99.5375C99.5263 4.28344 99.3575 4.11976 99.1509 4.11976H97.4418C97.2352 4.11976 97.0663 4.28344 97.055 4.48779H97.0528V5.47344C96.0057 4.18271 94.3548 3.64697 92.6993 3.64697C88.936 3.64697 85.8855 6.69988 85.8855 10.4661C85.8855 14.2324 88.936 17.2854 92.6993 17.2854V17.2858C94.3548 17.2858 96.1589 16.643 97.0525 15.4595L97.0528 15.4611ZM92.7059 14.8988C90.3126 14.8988 88.3722 12.9144 88.3722 10.4661C88.3722 8.01816 90.3126 6.03362 92.7059 6.03362C95.0991 6.03362 97.0392 8.01816 97.0392 10.4661C97.0392 12.9144 95.0991 14.8988 92.7059 14.8988Z" fill="#0D0E10"/>
<path fill-rule="evenodd" clip-rule="evenodd" d="M83.7249 15.8783L83.7241 9.60142H83.7243C83.7243 6.0632 81.4938 3.67627 77.9371 3.67627C76.2393 3.67627 74.8474 4.65882 74.3559 5.50284C74.2497 4.84288 73.8996 4.14917 72.8138 4.14917H72.2604C72.0464 4.14917 71.8716 4.32454 71.8716 4.53852V15.4915C71.8716 15.4918 71.8716 15.4926 71.8716 15.4931V16.6697H71.8737C71.885 16.8737 72.054 17.0376 72.2606 17.0376H73.9697C73.9959 17.0376 74.0215 17.0345 74.0463 17.0296C74.0576 17.0275 74.0682 17.023 74.0792 17.0199C74.0919 17.016 74.1051 17.013 74.1171 17.008C74.1324 17.0017 74.1462 16.9932 74.1604 16.9853C74.1673 16.9811 74.1745 16.9781 74.1812 16.9736C74.1983 16.9626 74.2139 16.9494 74.229 16.9359C74.2315 16.9333 74.2345 16.9317 74.2369 16.9295C74.2539 16.913 74.2694 16.8948 74.2832 16.876C74.2833 16.8757 74.2833 16.8757 74.2833 16.8757C74.3261 16.8169 74.3521 16.7461 74.3563 16.6697H74.3585V9.50412C74.3585 7.60384 75.898 6.0632 77.797 6.0632C79.6958 6.0632 81.2353 7.60384 81.2353 9.50412L81.2369 15.4935L81.2373 15.4915C81.2373 15.4968 81.2382 15.5022 81.2382 15.5079V16.6697H81.2404C81.2517 16.8737 81.4205 17.0376 81.6271 17.0376H83.3363C83.3626 17.0376 83.3881 17.0345 83.4129 17.0296C83.423 17.0278 83.4323 17.0237 83.4422 17.0209C83.4562 17.0169 83.4705 17.0133 83.484 17.008C83.498 17.0022 83.5107 16.9941 83.5239 16.9867C83.532 16.9822 83.5405 16.9788 83.5483 16.9736C83.564 16.9633 83.5785 16.9508 83.5926 16.9384C83.5962 16.935 83.6003 16.9325 83.6037 16.9291C83.6199 16.9135 83.6343 16.8966 83.6476 16.879C83.6484 16.8776 83.6495 16.8765 83.6505 16.8752C83.6926 16.8169 83.7184 16.7466 83.7228 16.6707C83.7228 16.6702 83.723 16.6697 83.723 16.6697H83.7253V15.8785L83.7249 15.8783Z" fill="#0D0E10"/>
<path fill-rule="evenodd" clip-rule="evenodd" d="M65.9258 15.4611C65.9856 16.1413 66.5297 17.0071 67.4722 17.0071H68.0238C68.2377 17.0071 68.4126 16.8319 68.4126 16.618V4.48779H68.4105C68.3993 4.28344 68.2303 4.11976 68.0238 4.11976H66.3148C66.1081 4.11976 65.9393 4.28344 65.9277 4.48779H65.9258V5.47344C64.8785 4.18271 63.2277 3.64697 61.5721 3.64697C57.809 3.64697 54.7585 6.69988 54.7585 10.4661C54.7585 14.2324 57.809 17.2854 61.5721 17.2854V17.2858C63.2277 17.2858 65.032 16.643 65.9256 15.4595L65.9258 15.4611ZM61.5787 14.8988C59.1856 14.8988 57.2453 12.9144 57.2453 10.4661C57.2453 8.01816 59.1856 6.03362 61.5787 6.03362C63.9721 6.03362 65.912 8.01816 65.912 10.4661C65.912 12.9144 63.9721 14.8988 61.5787 14.8988Z" fill="#0D0E10"/>
<path fill-rule="evenodd" clip-rule="evenodd" d="M44.6515 13.7235C45.7924 14.5145 47.0378 14.8986 48.2346 14.8986C49.3747 14.8986 50.5534 14.3071 50.5534 13.2775C50.5534 11.903 47.985 11.6891 46.3713 11.1402C44.7573 10.5914 43.3673 9.45673 43.3673 7.61929C43.3673 4.8077 45.8705 3.64648 48.2069 3.64648C49.6872 3.64648 51.2146 4.13501 52.2049 4.83483C52.5459 5.09343 52.3382 5.39033 52.3382 5.39033L51.3929 6.74142C51.2867 6.8936 51.101 7.02507 50.8342 6.86036C50.5676 6.69576 49.6322 6.03321 48.2069 6.03321C46.7814 6.03321 45.9227 6.69204 45.9227 7.50863C45.9227 8.48785 47.0387 8.79584 48.3459 9.12959C50.6239 9.7441 53.1088 10.4827 53.1088 13.2775C53.1088 15.7548 50.7935 17.2857 48.2346 17.2857C46.2954 17.2857 44.6444 16.7324 43.2597 15.7155C42.9713 15.4266 43.1728 15.1584 43.1728 15.1584L44.1133 13.8141C44.3047 13.5628 44.546 13.6504 44.6515 13.7235Z" fill="#0D0E10"/>
<path fill-rule="evenodd" clip-rule="evenodd" d="M38.0813 15.4611C38.1411 16.1413 38.6852 17.0071 39.6279 17.0071H40.1795C40.3932 17.0071 40.5685 16.8319 40.5685 16.618V4.48779H40.5661C40.555 4.28344 40.3861 4.11976 40.1795 4.11976H38.4704C38.2638 4.11976 38.0949 4.28344 38.0834 4.48779H38.0813V5.47344C37.0343 4.18271 35.3833 3.64697 33.7278 3.64697C29.9647 3.64697 26.9142 6.69988 26.9142 10.4661C26.9142 14.2324 29.9647 17.2854 33.7278 17.2854V17.2858C35.3833 17.2858 37.1875 16.643 38.0811 15.4595L38.0813 15.4611ZM33.7345 14.8988C31.3412 14.8988 29.4009 12.9144 29.4009 10.4661C29.4009 8.01816 31.3412 6.03362 33.7345 6.03362C36.1277 6.03362 38.0677 8.01816 38.0677 10.4661C38.0677 12.9144 36.1277 14.8988 33.7345 14.8988Z" fill="#0D0E10"/>
<path fill-rule="evenodd" clip-rule="evenodd" d="M17.3615 10.9299C14.8291 10.9299 12.7762 12.9828 12.7762 15.5154C12.7762 18.0478 14.8291 20.1008 17.3615 20.1008C19.894 20.1008 21.9469 18.0478 21.9469 15.5154C21.9469 12.9828 19.894 10.9299 17.3615 10.9299ZM5.44841 10.9303C2.91602 10.9303 0.863068 12.9828 0.863068 15.5154C0.863068 18.0478 2.91602 20.1008 5.44841 20.1008C7.98092 20.1008 10.034 18.0478 10.034 15.5154C10.034 12.9828 7.98092 10.9303 5.44841 10.9303ZM15.9902 5.19804C15.9902 7.73064 13.9374 9.7838 11.405 9.7838C8.87248 9.7838 6.81963 7.73064 6.81963 5.19804C6.81963 2.66594 8.87248 0.612793 11.405 0.612793C13.9374 0.612793 15.9902 2.66594 15.9902 5.19804Z" fill="#F06A6A"/>
</svg>
