<svg width="264" height="167" viewBox="0 0 264 167" fill="none" xmlns="http://www.w3.org/2000/svg">
<path d="M263.666 166.36H0.405518V0.360352H263.666V166.36ZM1.20663 165.128H262.865V1.59318H1.20663V165.128Z" fill="#3F3D56"/>
<path d="M37.5135 67.8093H21.624C20.5397 58.472 20.5397 48.9267 21.624 39.5894H37.5135C35.7235 48.807 35.7235 58.5916 37.5135 67.8093V67.8093Z" fill="#E214FF"/>
<path d="M51.2697 79.8298H67.1592C68.2435 70.4925 68.2435 60.9472 67.1592 51.6099H51.2697C53.0597 60.8276 53.0597 70.6121 51.2697 79.8298V79.8298Z" fill="#E6E6E6"/>
<path d="M153.808 85.6004H175.4C175.55 85.5927 175.691 85.4988 175.795 85.3384C175.899 85.1781 175.958 84.9638 175.958 84.7409C175.958 84.5179 175.899 84.3037 175.795 84.1433C175.691 83.983 175.55 83.8891 175.4 83.8813H153.808C153.659 83.8891 153.517 83.983 153.413 84.1433C153.309 84.3037 153.251 84.5179 153.251 84.7409C153.251 84.9638 153.309 85.1781 153.413 85.3384C153.517 85.4988 153.659 85.5927 153.808 85.6004V85.6004Z" fill="#E6E6E6"/>
<path d="M174.839 77.4917L178.212 82.0782C178.598 82.6027 179.659 83.6857 179.899 84.3715C180.395 85.7895 179.862 85.466 179.013 85.9573C176.926 87.1943 175.003 88.973 173.333 91.2106C172.775 91.9435 173.594 93.1555 174.149 92.4262C175.672 90.3875 177.422 88.7594 179.32 87.615C180 87.214 181.291 86.9792 181.615 85.7717C182.01 84.2938 180.75 83.2034 180.153 82.3915L175.655 76.276C175.107 75.5314 174.289 76.7438 174.839 77.4916L174.839 77.4917Z" fill="#E6E6E6"/>
<path d="M32.804 120.516H48.6935C49.7779 111.179 49.7779 101.634 48.6935 92.2964H32.804C34.5941 101.514 34.5941 111.299 32.804 120.516V120.516Z" fill="#E214FF"/>
<path d="M156.293 65.5041H172.182C173.267 56.1668 173.267 46.6215 172.182 37.2842H156.293C158.083 46.5019 158.083 56.2864 156.293 65.5041V65.5041Z" fill="#E214FF"/>
<path d="M105.989 111.873V42.2225L101.757 40.8174V118.177L133.687 117.69L133.58 111.453L105.989 111.873Z" fill="#F2F2F2"/>
<path d="M137.534 123.993H99.0644V31.7349H137.534V123.993ZM99.8338 122.847H136.765V32.8809H99.8338V122.847Z" fill="#3F3D56"/>
<path d="M108.758 37.4658H102.527V38.6119H108.758V37.4658Z" fill="#3F3D56"/>
<path d="M108.758 40.3311H102.527V41.4771H108.758V40.3311Z" fill="#3F3D56"/>
<path d="M108.758 43.1963H102.527V44.3424H108.758V43.1963Z" fill="#3F3D56"/>
<path d="M132.224 92.4775H105.604V93.6236H132.224V92.4775Z" fill="#3F3D56"/>
<path d="M132.224 98.7803H105.604V99.9263H132.224V98.7803Z" fill="#3F3D56"/>
<path d="M132.224 105.084H105.604V106.231H132.224V105.084Z" fill="#3F3D56"/>
<path d="M131.764 44.9145C131.231 44.9145 130.711 44.6793 130.268 44.2385C129.825 43.7978 129.48 43.1713 129.276 42.4383C129.072 41.7054 129.019 40.8989 129.123 40.1208C129.227 39.3427 129.483 38.6279 129.86 38.067C130.236 37.506 130.716 37.1239 131.239 36.9692C131.761 36.8144 132.302 36.8938 132.794 37.1974C133.286 37.501 133.707 38.0152 134.003 38.6748C134.299 39.3344 134.457 40.11 134.457 40.9033C134.456 41.9668 134.172 42.9864 133.667 43.7384C133.162 44.4904 132.478 44.9134 131.764 44.9145ZM131.764 38.0382C131.383 38.0382 131.012 38.2062 130.695 38.521C130.379 38.8358 130.132 39.2833 129.987 39.8069C129.841 40.3304 129.803 40.9065 129.877 41.4623C129.952 42.0181 130.135 42.5286 130.404 42.9293C130.673 43.33 131.016 43.6029 131.389 43.7134C131.762 43.824 132.148 43.7672 132.5 43.5504C132.851 43.3335 133.152 42.9663 133.363 42.4951C133.575 42.0239 133.687 41.47 133.687 40.9033C133.687 40.1437 133.484 39.4154 133.123 38.8783C132.763 38.3412 132.274 38.039 131.764 38.0382V38.0382Z" fill="#3F3D56"/>
<path d="M132.533 79.297H105.22V52.9375H132.533V79.297ZM105.989 78.1509H131.764V54.0836H105.989V78.1509Z" fill="#3F3D56"/>
<path d="M105.812 53.0287L105.398 53.9951L131.943 79.2087L132.356 78.2424L105.812 53.0287Z" fill="#3F3D56"/>
<path d="M131.942 53.0272L105.397 78.2402L105.811 79.2066L132.356 53.9936L131.942 53.0272Z" fill="#3F3D56"/>
<path d="M203.703 111.873V42.2225L199.471 40.8174V118.177L231.401 117.69L231.293 111.453L203.703 111.873Z" fill="#F2F2F2"/>
<path d="M235.633 122.848H197.163V30.5898H235.633V122.848ZM197.932 121.702H234.863V31.7359H197.932V121.702Z" fill="#3F3D56"/>
<path d="M206.856 36.3198H200.625V37.4659H206.856V36.3198Z" fill="#3F3D56"/>
<path d="M206.856 39.1855H200.625V40.3316H206.856V39.1855Z" fill="#3F3D56"/>
<path d="M206.856 42.0498H200.625V43.1959H206.856V42.0498Z" fill="#3F3D56"/>
<path d="M229.862 43.7695C229.33 43.7695 228.809 43.5343 228.366 43.0935C227.923 42.6528 227.578 42.0263 227.374 41.2933C227.171 40.5604 227.117 39.7538 227.221 38.9757C227.325 38.1976 227.582 37.4829 227.958 36.9219C228.335 36.361 228.815 35.9789 229.337 35.8241C229.859 35.6694 230.401 35.7488 230.893 36.0524C231.385 36.356 231.806 36.8701 232.101 37.5298C232.397 38.1894 232.555 38.965 232.555 39.7583C232.554 40.8218 232.27 41.8414 231.766 42.5933C231.261 43.3453 230.576 43.7683 229.862 43.7695ZM229.862 36.8931C229.482 36.8931 229.11 37.0612 228.794 37.376C228.477 37.6908 228.231 38.1383 228.085 38.6619C227.94 39.1854 227.902 39.7615 227.976 40.3173C228.05 40.873 228.233 41.3836 228.502 41.7843C228.771 42.185 229.114 42.4579 229.487 42.5684C229.86 42.679 230.247 42.6222 230.598 42.4054C230.95 42.1885 231.25 41.8213 231.462 41.3501C231.673 40.8789 231.786 40.325 231.786 39.7583C231.785 38.9987 231.582 38.2704 231.222 37.7333C230.861 37.1961 230.372 36.894 229.862 36.8931V36.8931Z" fill="#3F3D56"/>
<path d="M230.632 78.151H203.318V51.7915H230.632V78.151ZM204.088 77.0049H229.862V52.9376H204.088V77.0049Z" fill="#3F3D56"/>
<path d="M203.91 51.8818L203.496 52.8481L230.04 78.0616L230.454 77.0952L203.91 51.8818Z" fill="#3F3D56"/>
<path d="M230.041 51.8838L203.495 77.0928L203.909 78.0592L230.455 52.8503L230.041 51.8838Z" fill="#3F3D56"/>
<path d="M230.632 112.533H203.318V86.1738H230.632V112.533ZM204.088 111.387H229.862V87.3199H204.088V111.387Z" fill="#3F3D56"/>
<path d="M203.91 86.2636L203.496 87.23L230.04 112.443L230.454 111.477L203.91 86.2636Z" fill="#3F3D56"/>
<path d="M230.041 86.2666L203.495 111.476L203.909 112.442L230.455 87.2331L230.041 86.2666Z" fill="#3F3D56"/>
<path d="M112.437 141.718H128.326C129.411 132.381 129.411 122.835 128.326 113.498H112.437C114.227 122.716 114.227 132.5 112.437 141.718V141.718Z" fill="#E214FF"/>
</svg>
