<svg width="115" height="51" viewBox="0 0 115 51" fill="none" xmlns="http://www.w3.org/2000/svg">
<path d="M51.235 39.0588L57.1937 24.3412H61.8041L52.8849 43.575H49.453L40.5621 24.3412H45.1725L51.235 39.0588Z" fill="#E214FF"/>
<path d="M51.0934 4.69253L45.0027 20.2399H40.5337L49.4246 0.148071H52.866L61.7758 20.2399H57.2596L51.0934 4.69253Z" fill="#E214FF"/>
<path d="M0 42.4263V16.6869H7.26925C9.50613 16.6869 11.4837 17.1842 13.1997 18.1766C14.9204 19.1642 16.2498 20.5714 17.1879 22.4005C18.1236 24.2249 18.5974 26.3203 18.6116 28.6892V30.3297C18.6116 32.7622 18.1425 34.893 17.2067 36.7221C16.2686 38.5465 14.9298 39.9466 13.1903 40.9272C11.4554 41.903 9.43306 42.4027 7.12783 42.4263H0ZM3.3942 19.4777V39.6543H6.96755C9.58155 39.6543 11.6157 38.8411 13.0677 37.2124C14.5244 35.586 15.2551 33.269 15.2551 30.2637V28.7646C15.2551 25.8418 14.5668 23.5696 13.1903 21.9479C11.8184 20.3262 9.87383 19.5036 7.35411 19.4777H3.3942Z" fill="white"/>
<path d="M31.1619 42.7845C28.5714 42.7845 26.4618 41.9336 24.8354 40.2295C23.2067 38.5276 22.3935 36.2483 22.3935 33.3939V32.7905C22.3935 30.893 22.7541 29.1983 23.4778 27.7086C24.2061 26.2189 25.222 25.0545 26.5231 24.2107C27.8242 23.3692 29.2338 22.9473 30.7564 22.9473C33.2455 22.9473 35.1783 23.7676 36.5549 25.4081C37.9361 27.0439 38.6291 29.3869 38.6291 32.4416V33.7993H25.6651C25.7146 35.685 26.2638 37.21 27.3151 38.3721C28.3711 39.5294 29.7122 40.1069 31.341 40.1069C32.496 40.1069 33.4742 39.8712 34.2732 39.3998C35.077 38.9283 35.7817 38.3061 36.3852 37.5329L38.3745 39.0886C36.7717 41.5541 34.3675 42.7845 31.1619 42.7845ZM30.7564 25.6344C29.4365 25.6344 28.3263 26.1152 27.4282 27.0769C26.5349 28.0339 25.9857 29.3774 25.7783 31.1122H35.3575V30.8671C35.2632 29.203 34.813 27.9137 34.0092 27.0015C33.2102 26.0916 32.1259 25.6344 30.7564 25.6344Z" fill="white"/>
<path d="M69.3397 42.4263H66.0775V23.2962H69.3397V42.4263ZM65.8041 18.2237C65.8041 17.6957 65.9667 17.2502 66.2944 16.8849C66.6196 16.5148 67.1005 16.3286 67.7369 16.3286C68.3709 16.3286 68.8518 16.5148 69.1794 16.8849C69.5118 17.2502 69.6791 17.6957 69.6791 18.2237C69.6791 18.7517 69.5118 19.1948 69.1794 19.5531C68.8518 19.9067 68.3709 20.0811 67.7369 20.0811C67.1005 20.0811 66.6196 19.9067 66.2944 19.5531C65.9667 19.1948 65.8041 18.7517 65.8041 18.2237Z" fill="white"/>
<path d="M79.012 18.6668V23.2961H82.5853V25.8229H79.012V37.6838C79.012 38.4522 79.1676 39.0273 79.4834 39.4091C79.804 39.7933 80.3461 39.9843 81.1145 39.9843C81.4916 39.9843 82.0102 39.9159 82.6702 39.7768V42.4262C81.8075 42.6643 80.9731 42.7845 80.1622 42.7845C78.7032 42.7845 77.6001 42.3414 76.8529 41.4551C76.1104 40.5688 75.7404 39.3125 75.7404 37.6838V25.8229H72.2613V23.2961H75.7404V18.6668H79.012Z" fill="white"/>
<path d="M92.6584 37.6367L97.118 23.2961H100.616L92.9223 45.3773C91.7344 48.557 89.844 50.1481 87.2559 50.1481L86.6336 50.1009L85.4174 49.8652V47.2159L86.2942 47.2913C87.4068 47.2913 88.2695 47.065 88.887 46.6124C89.5022 46.1646 90.0113 45.349 90.4144 44.1611L91.1404 42.2094L84.3143 23.2961H87.8876L92.6584 37.6367Z" fill="white"/>
<path d="M97.8857 46.0729H114.633" stroke="white" stroke-width="3.98238"/>
</svg>
