<svg width="265" height="167" viewBox="0 0 265 167" fill="none" xmlns="http://www.w3.org/2000/svg">
<path d="M258.311 166.466H6.88865C5.30453 166.465 3.78595 165.835 2.66604 164.717C1.54621 163.599 0.916415 162.083 0.914551 160.502V5.7022C0.915871 4.57945 1.36312 3.50291 2.15843 2.70876C2.95376 1.91458 4.03225 1.46768 5.15736 1.46631H259.961C261.107 1.46768 262.207 1.92321 263.017 2.73274C263.828 3.5423 264.284 4.63976 264.285 5.78433V160.502C264.284 162.083 263.654 163.599 262.534 164.717C261.414 165.835 259.895 166.465 258.311 166.466Z" fill="#F2F2F2" stroke="#3F3D56"/>
<path d="M13.3117 5.99931C13.3117 6.6492 12.7839 7.17733 12.1312 7.17733C11.4785 7.17733 10.9506 6.6492 10.9506 5.99931C10.9506 5.34941 11.4785 4.82129 12.1312 4.82129C12.7839 4.82129 13.3117 5.34941 13.3117 5.99931Z" stroke="#3F3D56"/>
<path d="M19.6906 5.99931C19.6906 6.6492 19.1628 7.17733 18.5101 7.17733C17.8574 7.17733 17.3296 6.6492 17.3296 5.99931C17.3296 5.34941 17.8574 4.82129 18.5101 4.82129C19.1628 4.82129 19.6906 5.34941 19.6906 5.99931Z" stroke="#3F3D56"/>
<path d="M26.0695 5.99931C26.0695 6.6492 25.5417 7.17733 24.889 7.17733C24.2363 7.17733 23.7084 6.6492 23.7084 5.99931C23.7084 5.34941 24.2363 4.82129 24.889 4.82129C25.5417 4.82129 26.0695 5.34941 26.0695 5.99931Z" stroke="#3F3D56"/>
<path d="M127.464 43.3335H81.6355C80.9523 43.3335 80.2971 43.0625 79.8139 42.5801C79.3308 42.0977 79.0594 41.4434 79.0594 40.7612C79.0594 40.079 79.3308 39.4248 79.8139 38.9424C80.2971 38.46 80.9523 38.189 81.6355 38.189H127.464C128.147 38.189 128.802 38.46 129.285 38.9424C129.768 39.4248 130.04 40.079 130.04 40.7612C130.04 41.4434 129.768 42.0977 129.285 42.5801C128.802 43.0625 128.147 43.3335 127.464 43.3335V43.3335Z" fill="#CCCCCC"/>
<path d="M184.41 43.3335H138.582C137.898 43.3335 137.243 43.0625 136.76 42.5801C136.277 42.0977 136.005 41.4434 136.005 40.7612C136.005 40.079 136.277 39.4248 136.76 38.9424C137.243 38.46 137.898 38.189 138.582 38.189H184.41C185.093 38.189 185.748 38.46 186.231 38.9424C186.714 39.4248 186.986 40.079 186.986 40.7612C186.986 41.4434 186.714 42.0977 186.231 42.5801C185.748 43.0625 185.093 43.3335 184.41 43.3335V43.3335Z" fill="#CCCCCC"/>
<path d="M184.41 53.0811H104.685C104.002 53.0811 103.347 52.81 102.864 52.3277C102.38 51.8453 102.109 51.191 102.109 50.5088C102.109 49.8266 102.38 49.1723 102.864 48.6899C103.347 48.2075 104.002 47.9365 104.685 47.9365H184.41C185.093 47.9365 185.748 48.2075 186.231 48.6899C186.714 49.1723 186.986 49.8266 186.986 50.5088C186.986 51.191 186.714 51.8453 186.231 52.3277C185.748 52.81 185.093 53.0811 184.41 53.0811Z" fill="#CCCCCC"/>
<path d="M127.464 33.4502H81.6355C80.9528 33.4494 80.2984 33.178 79.816 32.6957C79.3336 32.2134 79.0626 31.5596 79.0626 30.8779C79.0626 30.1963 79.3336 29.5425 79.816 29.0602C80.2984 28.5779 80.9528 28.3065 81.6355 28.3057H127.464C127.802 28.3052 128.137 28.3715 128.45 28.5006C128.763 28.6296 129.048 28.819 129.287 29.0579C129.527 29.2968 129.717 29.5805 129.846 29.8928C129.976 30.2051 130.043 30.5399 130.043 30.8779C130.043 31.216 129.976 31.5507 129.846 31.863C129.717 32.1753 129.527 32.459 129.287 32.6979C129.048 32.9368 128.763 33.1262 128.45 33.2553C128.137 33.3844 127.802 33.4506 127.464 33.4502V33.4502Z" fill="#CCCCCC"/>
<path d="M152.683 33.5859H139.666C138.983 33.5859 138.328 33.3149 137.845 32.8325C137.362 32.3501 137.09 31.6959 137.09 31.0137C137.09 30.3315 137.362 29.6772 137.845 29.1948C138.328 28.7124 138.983 28.4414 139.666 28.4414H152.683C153.366 28.4414 154.021 28.7124 154.504 29.1948C154.987 29.6772 155.259 30.3315 155.259 31.0137C155.259 31.6959 154.987 32.3501 154.504 32.8325C154.021 33.3149 153.366 33.5859 152.683 33.5859Z" fill="#CCCCCC"/>
<path d="M94.6517 53.0811H81.6355C80.9528 53.0802 80.2984 52.8088 79.816 52.3265C79.3336 51.8442 79.0626 51.1905 79.0626 50.5088C79.0626 49.8271 79.3336 49.1733 79.816 48.691C80.2984 48.2087 80.9528 47.9374 81.6355 47.9365H94.6517C94.9903 47.9361 95.3257 48.0023 95.6386 48.1314C95.9515 48.2605 96.2358 48.4499 96.4754 48.6888C96.715 48.9277 96.905 49.2114 97.0347 49.5237C97.1643 49.836 97.2311 50.1707 97.2311 50.5088C97.2311 50.8469 97.1643 51.1816 97.0347 51.4939C96.905 51.8062 96.715 52.0899 96.4754 52.3288C96.2358 52.5677 95.9515 52.7571 95.6386 52.8862C95.3257 53.0152 94.9903 53.0815 94.6517 53.0811Z" fill="#CCCCCC"/>
<path d="M127.464 134.61H81.6355C80.9523 134.61 80.2971 134.339 79.8139 133.857C79.3308 133.375 79.0594 132.72 79.0594 132.038C79.0594 131.356 79.3308 130.702 79.8139 130.219C80.2971 129.737 80.9523 129.466 81.6355 129.466H127.464C127.802 129.466 128.137 129.532 128.449 129.662C128.762 129.791 129.046 129.98 129.285 130.219C129.524 130.458 129.714 130.742 129.844 131.054C129.973 131.366 130.04 131.7 130.04 132.038C130.04 132.376 129.973 132.71 129.844 133.022C129.714 133.335 129.524 133.618 129.285 133.857C129.046 134.096 128.762 134.285 128.449 134.415C128.137 134.544 127.802 134.61 127.464 134.61V134.61Z" fill="#CCCCCC"/>
<path d="M184.41 134.61H138.582C137.898 134.61 137.243 134.339 136.76 133.857C136.277 133.375 136.005 132.72 136.005 132.038C136.005 131.356 136.277 130.702 136.76 130.219C137.243 129.737 137.898 129.466 138.582 129.466H184.41C184.748 129.466 185.083 129.532 185.395 129.662C185.708 129.791 185.992 129.98 186.231 130.219C186.47 130.458 186.66 130.742 186.79 131.054C186.919 131.366 186.986 131.7 186.986 132.038C186.986 132.376 186.919 132.71 186.79 133.022C186.66 133.335 186.47 133.618 186.231 133.857C185.992 134.096 185.708 134.285 185.395 134.415C185.083 134.544 184.748 134.61 184.41 134.61V134.61Z" fill="#E214FF"/>
<path d="M184.41 144.358H104.685C104.002 144.358 103.347 144.087 102.864 143.605C102.38 143.122 102.109 142.468 102.109 141.786C102.109 141.103 102.38 140.449 102.864 139.967C103.347 139.484 104.002 139.213 104.685 139.213H184.41C184.748 139.213 185.084 139.279 185.396 139.408C185.709 139.537 185.994 139.727 186.233 139.966C186.473 140.205 186.663 140.488 186.793 140.801C186.922 141.113 186.989 141.448 186.989 141.786C186.989 142.124 186.922 142.458 186.793 142.771C186.663 143.083 186.473 143.367 186.233 143.606C185.994 143.845 185.709 144.034 185.396 144.163C185.084 144.292 184.748 144.358 184.41 144.358Z" fill="#E214FF"/>
<path d="M127.464 124.728H81.6355C80.9523 124.728 80.2971 124.457 79.8139 123.974C79.3308 123.492 79.0594 122.837 79.0594 122.155C79.0594 121.473 79.3308 120.819 79.8139 120.336C80.2971 119.854 80.9523 119.583 81.6355 119.583H127.464C128.147 119.583 128.802 119.854 129.285 120.336C129.768 120.819 130.04 121.473 130.04 122.155C130.04 122.837 129.768 123.492 129.285 123.974C128.802 124.457 128.147 124.728 127.464 124.728Z" fill="#CCCCCC"/>
<path d="M152.683 124.863H139.666C138.983 124.863 138.328 124.592 137.845 124.11C137.362 123.627 137.09 122.973 137.09 122.291C137.09 121.609 137.362 120.955 137.845 120.472C138.328 119.99 138.983 119.719 139.666 119.719H152.683C153.366 119.719 154.021 119.99 154.504 120.472C154.987 120.955 155.259 121.609 155.259 122.291C155.259 122.973 154.987 123.627 154.504 124.11C154.021 124.592 153.366 124.863 152.683 124.863V124.863Z" fill="#E214FF"/>
<path d="M94.6518 144.358H81.6355C80.9523 144.358 80.2971 144.087 79.8139 143.605C79.3308 143.122 79.0594 142.468 79.0594 141.786C79.0594 141.103 79.3308 140.449 79.8139 139.967C80.2971 139.484 80.9523 139.213 81.6355 139.213H94.6518C94.9903 139.213 95.3257 139.279 95.6386 139.408C95.9515 139.537 96.2359 139.727 96.4754 139.966C96.715 140.205 96.905 140.488 97.0347 140.801C97.1643 141.113 97.2311 141.448 97.2311 141.786C97.2311 142.124 97.1643 142.458 97.0347 142.771C96.905 143.083 96.715 143.367 96.4754 143.606C96.2359 143.845 95.9515 144.034 95.6386 144.163C95.3257 144.292 94.9903 144.358 94.6518 144.358Z" fill="#CCCCCC"/>
<path d="M115.495 106.995C114.522 106.997 113.588 106.616 112.896 105.933L95.6692 88.9474C95.331 88.614 95.0624 88.2168 94.8792 87.7789C94.6959 87.341 94.6015 86.8711 94.6015 86.3965C94.6015 85.9219 94.6959 85.452 94.8792 85.0142C95.0624 84.5763 95.331 84.179 95.6692 83.8456L112.826 66.9282C113.541 66.2268 114.504 65.8352 115.506 65.8384C116.509 65.8416 117.469 66.2392 118.179 66.9451C118.89 67.6566 119.29 68.6207 119.29 69.6259C119.29 70.6311 118.89 71.5952 118.179 72.3068L105.43 85.0373C105.033 85.4348 104.81 85.9735 104.81 86.535C104.81 87.0966 105.033 87.6352 105.43 88.0328L118.11 100.694C118.628 101.21 118.981 101.868 119.124 102.584C119.267 103.301 119.194 104.043 118.913 104.718C118.633 105.393 118.159 105.97 117.55 106.375C116.942 106.78 116.226 106.996 115.495 106.995V106.995Z" fill="#E214FF"/>
<path d="M142.945 106.995C142.213 106.996 141.498 106.78 140.889 106.375C140.28 105.97 139.806 105.393 139.526 104.718C139.246 104.043 139.173 103.301 139.316 102.584C139.459 101.868 139.811 101.21 140.329 100.694L153.009 88.0328C153.407 87.6352 153.63 87.0966 153.63 86.535C153.63 85.9735 153.407 85.4348 153.009 85.0373L140.26 72.3068C139.907 71.9547 139.628 71.5368 139.437 71.0768C139.246 70.6168 139.148 70.1238 139.148 69.6259C139.148 69.128 139.246 68.635 139.437 68.175C139.628 67.7151 139.907 67.2971 140.26 66.9451V66.9451C140.97 66.2392 141.931 65.8416 142.933 65.8384C143.935 65.8352 144.898 66.2269 145.613 66.9282L162.77 83.8456C163.108 84.1791 163.377 84.5763 163.56 85.0142C163.743 85.4521 163.838 85.9219 163.838 86.3965C163.838 86.8711 163.743 87.341 163.56 87.7789C163.377 88.2168 163.108 88.614 162.77 88.9475L145.543 105.933C144.851 106.616 143.917 106.997 142.945 106.995Z" fill="#E214FF"/>
<line x1="0.912262" y1="10.3774" x2="264.785" y2="10.3774" stroke="#3F3D56"/>
</svg>
