<svg width="142" height="49" viewBox="0 0 142 49" fill="none" xmlns="http://www.w3.org/2000/svg">
<g clip-path="url(#clip0_63_581)">
<path d="M60.5299 24.9267C60.5299 31.5893 55.3356 36.4988 48.9609 36.4988C42.5862 36.4988 37.3918 31.5893 37.3918 24.9267C37.3918 18.2171 42.5862 13.3545 48.9609 13.3545C55.3356 13.3545 60.5299 18.2171 60.5299 24.9267ZM55.4656 24.9267C55.4656 20.7632 52.455 17.9145 48.9609 17.9145C45.4668 17.9145 42.4562 20.7632 42.4562 24.9267C42.4562 29.0484 45.4668 31.9388 48.9609 31.9388C52.455 31.9388 55.4656 29.0432 55.4656 24.9267Z" fill="black"/>
<path d="M85.488 24.9267C85.488 31.5893 80.2936 36.4988 73.9189 36.4988C67.5442 36.4988 62.3498 31.5893 62.3498 24.9267C62.3498 18.2223 67.5442 13.3545 73.9189 13.3545C80.2936 13.3545 85.488 18.2171 85.488 24.9267ZM80.4236 24.9267C80.4236 20.7632 77.413 17.9145 73.9189 17.9145C70.4248 17.9145 67.4142 20.7632 67.4142 24.9267C67.4142 29.0484 70.4248 31.9388 73.9189 31.9388C77.413 31.9388 80.4236 29.0432 80.4236 24.9267Z" fill="black"/>
<path d="M109.406 14.0536V34.8293C109.406 43.3754 104.383 46.8658 98.4453 46.8658C92.8557 46.8658 89.4916 43.1145 88.2229 40.0467L92.6322 38.2049C93.4173 40.0884 95.3411 42.311 98.4401 42.311C102.241 42.311 104.596 39.958 104.596 35.5284V33.8641H104.42C103.286 35.2675 101.102 36.4936 98.3465 36.4936C92.5802 36.4936 87.2974 31.4536 87.2974 24.9684C87.2974 18.4362 92.5802 13.3545 98.3465 13.3545C101.097 13.3545 103.281 14.5806 104.42 15.9423H104.596V14.0588H109.406V14.0536ZM104.955 24.9684C104.955 20.8936 102.246 17.9145 98.7989 17.9145C95.3048 17.9145 92.3774 20.8936 92.3774 24.9684C92.3774 29.0014 95.3048 31.9388 98.7989 31.9388C102.246 31.9388 104.955 29.0014 104.955 24.9684Z" fill="black"/>
<path d="M117.335 1.87628V35.7893H112.396V1.87628H117.335Z" fill="black"/>
<path d="M136.584 28.7354L140.515 31.365C139.246 33.2484 136.189 36.4937 130.906 36.4937C124.355 36.4937 119.462 31.4119 119.462 24.9215C119.462 18.0397 124.396 13.3493 130.34 13.3493C136.324 13.3493 139.252 18.1284 140.208 20.711L140.733 22.0258L125.317 28.4328C126.497 30.7545 128.332 31.9389 130.906 31.9389C133.485 31.9389 135.274 30.6658 136.584 28.7354ZM124.485 24.5719L134.79 20.278C134.224 18.8328 132.518 17.8258 130.511 17.8258C127.937 17.8258 124.355 20.1058 124.485 24.5719Z" fill="black"/>
<path d="M18.6941 21.9163V17.0067H35.182C35.3432 17.8624 35.4264 18.8745 35.4264 19.9702C35.4264 23.6537 34.4229 28.2084 31.1887 31.4537C28.043 34.7406 24.0237 36.4937 18.6993 36.4937C8.83054 36.4937 0.532013 28.4276 0.532013 18.525C0.532013 8.62236 8.83054 0.556274 18.6993 0.556274C24.1589 0.556274 28.0482 2.70584 30.9704 5.50758L27.5178 8.97193C25.4224 6.99975 22.5834 5.46584 18.6941 5.46584C11.4875 5.46584 5.85118 11.2937 5.85118 18.525C5.85118 25.7563 11.4875 31.5841 18.6941 31.5841C23.3686 31.5841 26.0308 29.7006 27.7362 27.9893C29.1193 26.6015 30.0292 24.6189 30.388 21.9111L18.6941 21.9163Z" fill="black"/>
</g>
<defs>
<clipPath id="clip0_63_581">
<rect width="141.429" height="48" fill="white" transform="translate(0.344818 0.311035)"/>
</clipPath>
</defs>
</svg>
