<svg width="972" height="336" viewBox="0 0 972 336" fill="none" xmlns="http://www.w3.org/2000/svg">
<path d="M660.086 249.887H321.817C315.965 249.887 311.197 245.118 311.197 239.258V201.018H670.706V239.258C670.706 245.118 665.939 249.887 660.086 249.887Z" stroke="#E6E6E6" stroke-width="5"/>
<path d="M670.706 213.974H311.197V9.12306C311.197 5.52814 314.123 2.60315 317.709 2.60315H664.195C667.781 2.60315 670.706 5.52813 670.706 9.12306V213.974Z" stroke="#E6E6E6" stroke-width="5"/>
<path d="M480.988 134.8L472.996 131.063C476.274 135.578 479.098 142.63 480.611 148.241C483.171 143.014 487.298 136.619 491.384 132.798L482.937 134.943C488.142 109.766 507.719 91.691 530.138 91.691L530.455 90.7816C507.038 90.7816 486.302 108.606 480.988 134.8Z" fill="#B5B5B5"/>
<path d="M517.587 174.277H467.01C464.865 174.277 463.12 172.465 463.12 170.237C463.12 168.01 464.865 166.197 467.01 166.197H517.587C519.732 166.197 521.477 168.01 521.477 170.237C521.477 172.465 519.732 174.277 517.587 174.277Z" fill="#E214FF"/>
<path d="M584.922 174.277H534.346C532.2 174.277 530.455 172.465 530.455 170.237C530.455 168.01 532.2 166.197 534.346 166.197H584.922C587.067 166.197 588.813 168.01 588.813 170.237C588.813 172.465 587.067 174.277 584.922 174.277Z" fill="#E6E6E6"/>
<path d="M555.167 68.1545H506.03C504.791 68.1545 503.783 67.1465 503.783 65.9077C503.783 64.6689 504.791 63.6614 506.03 63.6614H555.167C556.406 63.6614 557.413 64.669 557.413 65.9077C557.413 67.1465 556.406 68.1545 555.167 68.1545V68.1545Z" fill="#D9D9D9"/>
<path d="M581.534 92.1236H479.662C478.423 92.1236 477.415 91.1156 477.415 89.8768C477.415 88.638 478.423 87.6305 479.662 87.6305H581.534C582.773 87.6305 583.781 88.638 583.781 89.8768C583.781 91.1156 582.773 92.1236 581.534 92.1236Z" fill="#D9D9D9"/>
<path opacity="0.1" d="M587.344 167.954L586.757 186.716L575.948 205.484L584.973 184.569L587.344 167.954Z" fill="black"/>
<path d="M548.486 328.373L541.292 328.372L537.87 300.646L548.487 300.647L548.486 328.373Z" fill="#FFB8B8"/>
<path d="M550.321 335.34L527.125 335.339V335.046C527.125 333.862 527.358 332.688 527.812 331.594C528.266 330.499 528.931 329.505 529.769 328.667C530.607 327.83 531.603 327.165 532.698 326.712C533.794 326.258 534.968 326.025 536.153 326.025H536.154L550.321 326.026L550.321 335.34Z" fill="#2F2E41"/>
<path d="M577.825 328.373L570.631 328.372L567.209 300.646L577.826 300.647L577.825 328.373Z" fill="#FFB8B8"/>
<path d="M579.66 335.34L556.464 335.339V335.046C556.464 333.862 556.698 332.688 557.152 331.594C557.605 330.499 558.27 329.505 559.109 328.667C559.947 327.83 560.942 327.165 562.038 326.712C563.133 326.258 564.307 326.025 565.493 326.025H565.493L579.661 326.026L579.66 335.34Z" fill="#2F2E41"/>
<path d="M575.669 316.353L569.006 314.328C568.509 314.178 568.068 313.884 567.738 313.485C567.407 313.085 567.202 312.597 567.148 312.081L560.937 253.258C560.932 253.187 560.9 253.121 560.848 253.072C560.796 253.023 560.727 252.996 560.656 252.996C560.585 252.989 560.513 253.01 560.457 253.055C560.401 253.1 560.365 253.165 560.356 253.236L549.952 310.225C549.889 310.571 549.757 310.901 549.565 311.195C549.372 311.489 549.123 311.742 548.831 311.938C548.54 312.135 548.212 312.272 547.867 312.34C547.522 312.408 547.166 312.407 546.822 312.336L538.307 310.583C537.682 310.452 537.126 310.101 536.74 309.594C536.354 309.086 536.164 308.456 536.205 307.82L542.534 214.413L585.45 209.786L579.073 313.99C579.031 314.66 578.736 315.289 578.248 315.749C577.759 316.21 577.113 316.467 576.441 316.468C576.18 316.468 575.919 316.43 575.669 316.353Z" fill="#2F2E41"/>
<path d="M575.628 133.071C583.588 133.071 590.04 126.623 590.04 118.67C590.04 110.717 583.588 104.27 575.628 104.27C567.669 104.27 561.216 110.717 561.216 118.67C561.216 126.623 567.669 133.071 575.628 133.071Z" fill="#FFB8B8"/>
<path d="M542.468 214.962L551.773 156.418C552.268 153.305 553.42 150.333 555.154 147.7C556.887 145.067 559.162 142.834 561.827 141.147C564.492 139.461 567.486 138.361 570.609 137.921C573.733 137.481 576.914 137.71 579.942 138.594C585.235 140.124 589.768 143.571 592.654 148.261C595.541 152.952 596.573 158.549 595.551 163.96L585.815 216.242L542.468 214.962Z" fill="#E214FF"/>
<path d="M579.607 225.437C580.326 224.962 580.933 224.335 581.385 223.6C581.836 222.866 582.12 222.041 582.218 221.185C582.316 220.328 582.224 219.461 581.95 218.644C581.676 217.827 581.226 217.079 580.632 216.455L590.253 197.838L579.418 198.994L571.943 216.495C570.959 217.562 570.401 218.953 570.374 220.404C570.348 221.855 570.855 223.265 571.8 224.367C572.744 225.469 574.061 226.187 575.5 226.384C576.939 226.581 578.4 226.244 579.607 225.437V225.437Z" fill="#FFB8B8"/>
<path d="M492.634 110.824C492.791 111.672 493.132 112.474 493.633 113.176C494.134 113.878 494.783 114.461 495.534 114.885C496.285 115.308 497.12 115.563 497.98 115.629C498.84 115.696 499.705 115.573 500.512 115.269L513.918 131.38L517.077 120.96L503.863 107.259C503.263 105.937 502.199 104.881 500.872 104.291C499.545 103.701 498.048 103.618 496.663 104.058C495.279 104.497 494.105 105.429 493.362 106.676C492.619 107.923 492.36 109.399 492.634 110.824Z" fill="#FFB8B8"/>
<path d="M503.135 117.502C503.412 117.042 503.822 116.677 504.312 116.455L508.879 114.393C509.374 114.171 509.926 114.106 510.459 114.208C510.992 114.309 511.481 114.571 511.86 114.959L525.05 128.522L557.186 140.985C558.147 141.554 558.987 142.308 559.658 143.202C560.328 144.096 560.815 145.113 561.091 146.195C561.368 147.277 561.428 148.404 561.269 149.509C561.109 150.615 560.733 151.678 560.162 152.638C559.591 153.599 558.836 154.437 557.941 155.106C557.045 155.774 556.027 156.26 554.943 156.535C553.86 156.81 552.733 156.869 551.626 156.708C550.52 156.548 549.456 156.171 548.496 155.599L527.855 148.803C521.59 146.741 516.288 142.476 512.935 136.8L503.125 120.201C502.937 119.882 502.818 119.527 502.776 119.158C502.734 118.79 502.77 118.417 502.881 118.064C502.943 117.867 503.028 117.679 503.135 117.502Z" fill="#E214FF"/>
<path d="M573.977 121.376C573.072 121.494 572.155 121.279 571.396 120.772C570.637 120.265 570.089 119.5 569.852 118.619C569.623 117.606 569.123 116.673 568.404 115.922C567.686 115.17 566.776 114.629 565.773 114.355C563.129 113.751 559.898 114.995 557.961 112.993C557.546 112.536 557.246 111.987 557.085 111.392C556.925 110.796 556.908 110.171 557.036 109.568C557.393 107.623 558.786 106.153 560.301 104.978C563.49 102.517 567.348 101.076 571.371 100.844C573.454 100.784 575.537 100.888 577.603 101.154C579.767 101.291 581.906 101.681 583.978 102.318C586.338 103.208 588.436 104.678 590.077 106.593C591.718 108.507 592.85 110.804 593.368 113.271C593.841 115.745 593.768 118.293 593.154 120.737C592.541 123.181 591.4 125.461 589.813 127.419C587.913 129.783 585.464 131.646 582.678 132.847C582.014 133.16 581.254 133.199 580.562 132.954C578.826 132.265 579.11 130.117 579.901 128.685C580.748 127.152 582.051 125.667 581.37 123.801C581.028 122.936 580.373 122.231 579.535 121.828C577.81 120.949 575.88 121.157 574.026 121.371L573.977 121.376Z" fill="#2F2E41"/>
<path d="M707.141 97.9592C707.968 97.4809 708.25 96.4205 707.77 95.5908C707.29 94.7611 706.231 94.4763 705.403 94.9547C704.576 95.433 704.294 96.4934 704.774 97.3231C705.254 98.1527 706.313 98.4375 707.141 97.9592Z" fill="white"/>
<path d="M714.47 92.6842C715.811 91.9085 716.268 90.1891 715.49 88.8438C714.712 87.4985 712.994 87.0367 711.653 87.8123C710.311 88.588 709.854 90.3073 710.632 91.6527C711.41 92.998 713.128 93.4598 714.47 92.6842Z" fill="white"/>
<path d="M725.518 86.3219C727.944 84.9189 728.77 81.8088 727.363 79.3753C725.956 76.9418 722.848 76.1065 720.422 77.5095C717.996 78.9125 717.17 82.0226 718.577 84.4561C719.984 86.8896 723.092 87.7249 725.518 86.3219Z" fill="white"/>
<path d="M738.853 41.6214H906.644C908.853 41.6214 910.644 43.4123 910.644 45.6214V120.236C910.644 122.445 908.853 124.236 906.644 124.236H738.853C736.644 124.236 734.853 122.445 734.853 120.236V45.6214C734.853 43.4123 736.644 41.6214 738.853 41.6214Z" stroke="#E6E6E6" stroke-width="2"/>
<path d="M733.854 39.6051C733.854 38.5005 734.75 37.6051 735.854 37.6051H909.644C910.748 37.6051 911.644 38.5005 911.644 39.6051V45.1826H733.854V39.6051Z" fill="#E214FF"/>
<path d="M739.39 42.4892C740.163 42.4892 740.79 41.8605 740.79 41.0851C740.79 40.3096 740.163 39.681 739.39 39.681C738.617 39.681 737.99 40.3096 737.99 41.0851C737.99 41.8605 738.617 42.4892 739.39 42.4892Z" fill="white"/>
<path d="M744.704 42.4892C745.477 42.4892 746.104 41.8605 746.104 41.0851C746.104 40.3096 745.477 39.681 744.704 39.681C743.931 39.681 743.304 40.3096 743.304 41.0851C743.304 41.8605 743.931 42.4892 744.704 42.4892Z" fill="white"/>
<path d="M750.018 42.4892C750.791 42.4892 751.418 41.8605 751.418 41.0851C751.418 40.3096 750.791 39.681 750.018 39.681C749.245 39.681 748.618 40.3096 748.618 41.0851C748.618 41.8605 749.245 42.4892 750.018 42.4892Z" fill="white"/>
<path d="M867.098 59.3009H839.229V107.051H867.098V59.3009Z" fill="#F2F2F2"/>
<path d="M834.612 59.3H778.399V72.4438H834.612V59.3Z" fill="#E214FF"/>
<path d="M834.612 76.1042H778.399V90.2462H834.612V76.1042Z" fill="#F2F2F2"/>
<path d="M834.612 93.9065H778.399V107.05H834.612V93.9065Z" fill="#F2F2F2"/>
<path d="M733.602 180.924C733.608 179.956 733.409 178.997 733.02 178.112C732.63 177.226 732.058 176.433 731.342 175.784C730.625 175.136 729.78 174.646 728.862 174.348C727.944 174.05 726.973 173.95 726.014 174.054C725.71 174.088 725.409 174.144 725.113 174.22L701.927 154.287L703.313 146.797L691.885 143.082L688.439 155.086C688.032 156.527 688.098 158.061 688.629 159.461C689.159 160.86 690.126 162.051 691.384 162.857L719.907 180.95C719.907 181.175 719.919 181.4 719.942 181.624C720.046 182.586 720.352 183.516 720.839 184.352C721.327 185.187 721.985 185.91 722.77 186.473C723.555 187.036 724.45 187.426 725.396 187.618C726.343 187.81 727.318 187.799 728.26 187.586C728.534 187.525 728.803 187.447 729.067 187.352C730.387 186.874 731.53 186.001 732.34 184.852C733.151 183.702 733.592 182.331 733.602 180.924Z" fill="#9F616A"/>
<path d="M675.959 204.041H705.854C705.854 204.903 736.663 205.602 736.663 205.602C737.147 205.968 737.588 206.387 737.977 206.851C739.147 208.251 739.787 210.021 739.783 211.848V213.097C739.782 215.167 738.962 217.152 737.502 218.616C736.043 220.08 734.064 220.902 732 220.903H675.959C673.896 220.901 671.917 220.078 670.458 218.615C668.998 217.151 668.178 215.166 668.176 213.097V211.848C668.179 209.778 669 207.794 670.459 206.331C671.918 204.867 673.896 204.044 675.959 204.041Z" fill="#3F3D56"/>
<path d="M708.477 220.593H700.383V273.052H708.477V220.593Z" fill="#3F3D56"/>
<path d="M731.516 273.705C731.516 274.687 719.25 274.085 704.119 274.085C688.987 274.085 676.721 274.687 676.721 273.705C676.721 272.723 688.987 264.934 704.119 264.934C719.25 264.934 731.516 272.723 731.516 273.705Z" fill="#3F3D56"/>
<path d="M724.209 266.619L731.842 266.618L735.474 246.76L724.208 246.761L724.209 266.619Z" fill="#9F616A"/>
<path d="M722.262 274.04L746.876 274.039V273.727C746.876 272.465 746.628 271.216 746.147 270.05C745.666 268.884 744.96 267.825 744.07 266.932C743.181 266.04 742.125 265.332 740.962 264.849C739.8 264.366 738.554 264.118 737.296 264.118H737.295L722.261 264.119L722.262 274.04Z" fill="#2F2E41"/>
<path d="M735.627 254.304L750.845 220.076C752.116 217.191 752.256 213.932 751.239 210.948C750.221 207.964 748.12 205.474 745.354 203.973L712.344 186.22L697.281 184.935L683.386 183.668L683.286 183.838C683.158 184.055 680.171 189.231 682.19 194.906C683.722 199.21 687.706 202.572 694.032 204.899C708.799 210.33 725.857 214.971 732.505 216.714C732.799 216.789 733.073 216.926 733.311 217.115C733.548 217.305 733.743 217.543 733.882 217.813C734.021 218.08 734.104 218.373 734.125 218.674C734.146 218.975 734.105 219.277 734.004 219.561L719.865 251.42C719.718 251.824 719.665 252.257 719.71 252.685C719.755 253.113 719.898 253.525 720.127 253.888C720.357 254.252 720.666 254.558 721.032 254.783C721.398 255.008 721.81 255.146 722.237 255.186L732.802 255.957C732.892 255.966 732.981 255.97 733.07 255.97C733.611 255.97 734.14 255.812 734.594 255.517C735.048 255.221 735.406 254.8 735.627 254.304Z" fill="#CBCBCB"/>
<path d="M719.227 266.619L726.861 266.618L730.493 246.76L719.226 246.761L719.227 266.619Z" fill="#9F616A"/>
<path d="M717.28 274.04L741.895 274.039V273.727C741.895 272.465 741.647 271.216 741.166 270.05C740.684 268.884 739.979 267.825 739.089 266.932C738.199 266.04 737.143 265.332 735.981 264.849C734.818 264.366 733.573 264.118 732.315 264.118H732.314L717.28 264.119L717.28 274.04Z" fill="#2F2E41"/>
<path d="M730.022 256.178L745.241 221.95C746.512 219.065 746.652 215.806 745.634 212.821C744.617 209.837 742.516 207.347 739.75 205.847L706.74 188.093L691.677 186.808L680.794 185.862L680.795 185.712C680.667 185.929 677.68 191.104 679.699 196.779C681.231 201.084 682.102 204.446 688.428 206.773C703.194 212.203 720.252 216.844 726.901 218.587C727.195 218.663 727.469 218.8 727.707 218.989C727.944 219.178 728.138 219.416 728.278 219.686C728.417 219.953 728.5 220.247 728.521 220.547C728.542 220.848 728.501 221.15 728.4 221.434L714.261 253.294C714.114 253.698 714.06 254.13 714.106 254.558C714.151 254.986 714.294 255.398 714.523 255.762C714.752 256.126 715.062 256.432 715.428 256.657C715.793 256.882 716.206 257.019 716.633 257.059L727.198 257.831C727.287 257.839 727.377 257.843 727.466 257.843C728.007 257.843 728.536 257.686 728.99 257.39C729.444 257.095 729.802 256.673 730.022 256.178Z" fill="#CBCBCB"/>
<path d="M701.342 186.486C702.072 185.968 712.55 191.482 714.418 187.111C705.701 165.253 711.708 155.814 706.368 143.279C705.428 141.117 704.011 139.197 702.224 137.664C700.437 136.13 698.327 135.022 696.052 134.424L682.198 133.723L682.127 133.757C679 135.293 676.451 137.798 674.856 140.902C673.261 144.005 672.706 147.542 673.273 150.987C673.322 164.628 681.46 175.032 678.614 184.927C678.495 185.34 678.46 185.774 678.512 186.201C678.564 186.629 678.701 187.041 678.916 187.414C679.124 187.775 679.403 188.089 679.737 188.337C680.07 188.585 680.451 188.762 680.856 188.856L699.149 186.409C699.576 186.511 700.02 186.52 700.451 186.437C700.883 186.353 701.291 186.178 701.65 185.924L701.342 186.486Z" fill="#2F2E41"/>
<path d="M686.822 128.533C695.268 128.533 702.115 121.665 702.115 113.194C702.115 104.722 695.268 97.8551 686.822 97.8551C678.375 97.8551 671.528 104.722 671.528 113.194C671.528 121.665 678.375 128.533 686.822 128.533Z" fill="#9F616A"/>
<path d="M681.95 127.273C682.763 127.63 684.427 121.136 683.682 119.837C682.573 117.905 682.639 117.919 681.903 116.641C681.167 115.363 681.002 113.614 681.955 112.49C682.908 111.365 685.113 111.514 685.548 112.924C685.269 110.246 687.909 108.094 690.525 107.489C693.141 106.884 695.9 107.26 698.531 106.721C701.583 106.097 704.759 103.53 703.542 100.163C703.332 99.6029 703.02 99.0871 702.619 98.6433C701.212 97.0564 699.244 96.3788 697.319 95.7236C693.315 94.3607 689.202 92.9806 684.976 93.131C678.034 93.3782 671.471 98.1919 669.132 104.753C668.841 105.571 668.615 106.412 668.457 107.267C667.007 115.088 671.535 122.803 678.891 125.782L681.95 127.273Z" fill="#2F2E41"/>
<path d="M762.152 151.939L763.906 162.383C763.925 162.5 763.912 162.619 763.869 162.729L750.11 197.21C750.055 197.346 749.956 197.46 749.828 197.532C749.7 197.604 749.551 197.629 749.407 197.604C749.262 197.58 749.13 197.506 749.033 197.396C748.937 197.285 748.88 197.145 748.874 196.998L748.291 183.142C748.287 183.05 748.303 182.958 748.338 182.872L760.926 151.804C760.978 151.674 761.072 151.565 761.192 151.493C761.311 151.422 761.451 151.391 761.59 151.407C761.729 151.422 761.858 151.482 761.96 151.578C762.061 151.674 762.129 151.801 762.152 151.939Z" fill="#3F3D56"/>
<path d="M761.178 152.741L762.844 161.713L750.634 193.178L749.049 183.056L761.178 152.741Z" fill="#E214FF"/>
<path d="M707.757 197.049C708.058 198.225 747.5 199.499 747.909 199.143C748.276 198.687 748.594 198.193 748.857 197.671C749.271 196.93 749.653 196.188 749.653 196.188L749.005 183.677L710.152 179.512C710.152 179.512 708.433 189.953 707.893 194.749C707.772 195.509 707.726 196.28 707.757 197.049Z" fill="#3F3D56"/>
<path opacity="0.1" d="M743.922 185.001L743.925 195.779L726.741 194.554L727.501 183.83L743.922 185.001Z" fill="black"/>
<path opacity="0.1" d="M721.529 186.868L721.632 186.855L720.821 191.437L711.274 190.756L711.6 186.16L721.529 186.868Z" fill="black"/>
<path opacity="0.1" d="M707.757 197.049C708.058 198.225 747.5 199.499 747.909 199.143C748.276 198.687 748.594 198.193 748.857 197.671L707.893 194.749C707.772 195.509 707.726 196.28 707.757 197.049Z" fill="black"/>
<path d="M691.92 178.367L725.191 184.594C725.274 184.803 725.368 185.008 725.472 185.207C725.924 186.06 726.55 186.808 727.309 187.403C728.068 187.997 728.944 188.425 729.879 188.658C730.817 188.895 731.795 188.927 732.747 188.754C733.7 188.581 734.604 188.206 735.4 187.654C736.842 186.662 737.851 185.153 738.219 183.438C738.588 181.724 738.288 179.932 737.383 178.432C736.477 176.931 735.033 175.835 733.347 175.368C731.661 174.901 729.861 175.098 728.316 175.92C728.046 176.064 727.787 176.228 727.541 176.409L698.643 166.508L697.163 159.035L685.177 159.831L686.419 172.357C686.569 173.819 687.186 175.193 688.177 176.276C689.168 177.358 690.48 178.091 691.92 178.367Z" fill="#9F616A"/>
<path d="M684.771 165.418L702.188 159.676L698.125 147.975C697.586 146.422 696.516 145.109 695.105 144.27C693.694 143.431 692.033 143.119 690.415 143.39C688.778 143.663 687.293 144.515 686.227 145.791C685.162 147.066 684.586 148.682 684.604 150.347L684.771 165.418Z" fill="#2F2E41"/>
<path d="M795.262 274.652H649.162C649.06 274.652 648.963 274.612 648.891 274.539C648.819 274.467 648.779 274.369 648.779 274.267C648.779 274.165 648.819 274.068 648.891 273.996C648.963 273.923 649.06 273.883 649.162 273.883H795.262C795.364 273.883 795.462 273.923 795.534 273.996C795.606 274.068 795.646 274.165 795.646 274.267C795.646 274.369 795.606 274.467 795.534 274.539C795.462 274.612 795.364 274.652 795.262 274.652Z" fill="#CBCBCB"/>
<path d="M71.8415 299.572C71.0876 294.488 70.8885 289.337 71.2475 284.211L71.8415 275.726C68.5684 282.245 69.3081 290.826 71.8415 299.571V299.572Z" fill="#CACACA"/>
<path d="M74.3937 300.991C74.0308 297.957 73.9351 294.898 74.1079 291.848L74.3937 286.797C72.8189 290.678 73.1748 295.785 74.3937 300.991Z" fill="#CACACA"/>
<path d="M85.7385 307.237V310.075C85.7373 310.301 85.6473 310.517 85.488 310.676C85.3287 310.836 85.113 310.926 84.8877 310.927H83.4698C83.4325 310.927 83.3956 310.934 83.3611 310.948C83.3266 310.963 83.2953 310.983 83.269 311.01C83.2426 311.036 83.2217 311.068 83.2075 311.102C83.1933 311.137 83.1861 311.174 83.1862 311.211V334.489C83.1851 334.714 83.0951 334.93 82.9358 335.089C82.7765 335.249 82.5607 335.339 82.3355 335.34H65.0368C64.8112 335.34 64.5949 335.25 64.4354 335.091C64.2759 334.931 64.1862 334.714 64.186 334.489V311.211C64.1858 311.136 64.1558 311.064 64.1027 311.01C64.0496 310.957 63.9776 310.927 63.9024 310.927H62.2009C61.9753 310.927 61.7591 310.837 61.5995 310.677C61.44 310.518 61.3503 310.301 61.3502 310.075V307.237C61.35 307.125 61.3719 307.014 61.4146 306.911C61.4573 306.807 61.52 306.713 61.599 306.634C61.678 306.555 61.7719 306.492 61.8752 306.45C61.9785 306.407 62.0891 306.385 62.2009 306.385H84.8877C85.1131 306.386 85.3292 306.476 85.4886 306.635C85.648 306.795 85.7378 307.011 85.7385 307.237Z" fill="#F2F2F2"/>
<path d="M83.2118 311.523H64.2116V312.375H83.2118V311.523Z" fill="#E6E6E6"/>
<path d="M83.1861 324.055C76.8282 326.689 70.401 326.718 63.9023 324.055V318.055C70.1586 315.952 76.9299 315.952 83.1861 318.055V324.055Z" fill="#E6E6E6"/>
<path d="M103.202 283.888C104.286 276.575 104.573 269.166 104.056 261.791L103.202 249.586C107.91 258.964 106.846 271.307 103.202 283.888V283.888Z" fill="#CACACA"/>
<path d="M99.5305 285.929C100.053 281.566 100.19 277.165 99.9416 272.777L99.5305 265.512C101.796 271.094 101.284 278.441 99.5305 285.929Z" fill="#CACACA"/>
<path d="M83.2112 294.914V298.997C83.2129 299.322 83.3424 299.632 83.5715 299.862C83.8006 300.091 84.111 300.221 84.435 300.222H86.4747C86.5283 300.222 86.5814 300.233 86.631 300.253C86.6806 300.273 86.7256 300.304 86.7635 300.341C86.8015 300.379 86.8315 300.425 86.8519 300.474C86.8724 300.524 86.8828 300.577 86.8826 300.631V334.115C86.8843 334.44 87.0137 334.75 87.2429 334.98C87.472 335.209 87.7823 335.339 88.1064 335.34H112.99C113.315 335.34 113.626 335.211 113.855 334.981C114.085 334.751 114.214 334.44 114.214 334.115V300.631C114.214 300.522 114.257 300.419 114.334 300.342C114.41 300.266 114.514 300.223 114.622 300.222H117.07C117.394 300.222 117.705 300.093 117.935 299.863C118.164 299.634 118.293 299.322 118.293 298.997V294.914C118.294 294.753 118.262 294.593 118.201 294.445C118.139 294.296 118.049 294.161 117.935 294.047C117.822 293.933 117.687 293.843 117.538 293.782C117.39 293.72 117.23 293.689 117.07 293.689H84.435C84.1107 293.69 83.8 293.819 83.5707 294.049C83.3414 294.278 83.2122 294.589 83.2112 294.914Z" fill="#F2F2F2"/>
<path d="M86.846 301.08H114.177V302.305H86.846V301.08Z" fill="#E6E6E6"/>
<path d="M86.8829 319.106C96.0287 322.895 105.274 322.937 114.622 319.106V310.476C105.623 307.45 95.8824 307.45 86.8829 310.476V319.106Z" fill="#E6E6E6"/>
<path d="M174.997 90.9999C179.587 90.9999 183.308 87.2748 183.308 82.6797C183.308 78.0847 179.587 74.3596 174.997 74.3596C170.406 74.3596 166.685 78.0847 166.685 82.6797C166.685 87.2748 170.406 90.9999 174.997 90.9999Z" fill="#2F2E41"/>
<path d="M177.312 74.5887C178.751 74.5889 180.164 74.9627 181.415 75.6736C182.666 76.3845 183.711 77.4082 184.449 78.6446C185.186 79.8809 185.59 81.2876 185.622 82.7272C185.654 84.1668 185.311 85.5899 184.629 86.8575C185.35 85.955 185.875 84.9121 186.17 83.7953C186.466 82.6785 186.526 81.5123 186.347 80.371C186.167 79.2297 185.752 78.1383 185.128 77.1664C184.504 76.1945 183.684 75.3634 182.722 74.7261C181.759 74.0888 180.674 73.6592 179.537 73.4647C178.399 73.2702 177.233 73.3151 176.114 73.5965C174.994 73.878 173.946 74.3897 173.035 75.0992C172.124 75.8087 171.371 76.7004 170.823 77.7174C171.6 76.741 172.587 75.9526 173.711 75.4109C174.834 74.8692 176.065 74.5881 177.312 74.5887Z" fill="#2F2E41"/>
<path d="M159.465 82.6621C172.949 82.6621 183.881 71.7198 183.881 58.2218C183.881 44.7238 172.949 33.7814 159.465 33.7814C145.981 33.7814 135.05 44.7238 135.05 58.2218C135.05 71.7198 145.981 82.6621 159.465 82.6621Z" fill="#2F2E41"/>
<path d="M140.303 43.0577C144.51 38.3216 150.391 35.4068 156.704 34.9287C163.017 34.4506 169.269 36.4465 174.14 40.4951C173.94 40.3051 173.743 40.1136 173.535 39.929C168.695 35.6256 162.346 33.4225 155.884 33.8041C149.421 34.1857 143.375 37.1207 139.074 41.9638C134.773 46.8069 132.569 53.1616 132.948 59.6307C133.326 66.0998 136.255 72.1536 141.092 76.4612C141.299 76.6458 141.512 76.8197 141.724 76.9959C137.137 72.6278 134.425 66.6465 134.159 60.3144C133.894 53.9823 136.097 47.7948 140.303 43.0577Z" fill="#2F2E41"/>
<path d="M159.258 82.455C167.943 82.455 174.983 75.4074 174.983 66.7138C174.983 58.0201 167.943 50.9725 159.258 50.9725C150.573 50.9725 143.533 58.0201 143.533 66.7138C143.533 75.4074 150.573 82.455 159.258 82.455Z" fill="#FFB8B8"/>
<path d="M167.291 86.7283L150.463 87.4856C150.463 87.4856 151.868 96.1971 142.764 97.0256C133.659 97.8541 125.383 95.3687 122.072 101.582C118.762 107.796 120.189 129.921 120.189 129.921C120.189 129.921 126.396 152.29 131.362 155.604C136.328 158.918 179.779 154.361 179.779 154.361L197.964 131.377L197.348 113.651C197.026 104.395 188.584 97.4455 179.491 99.1584C179.312 99.1921 179.133 99.2283 178.952 99.2671C178.952 99.2671 176.954 97.7726 171.473 95.0294C168.121 93.3518 167.291 86.7283 167.291 86.7283Z" fill="#CACACA"/>
<path d="M130.763 96.6114C130.763 96.6114 134.762 103.876 133.107 114.232C131.452 124.588 138.397 146.491 138.397 146.491L143.363 145.248C143.363 145.248 140.052 123.707 140.88 118.737C141.708 113.766 141.936 99.0968 137.798 96.6114C133.66 94.1259 130.763 96.6114 130.763 96.6114Z" fill="#2F2E41"/>
<path d="M178.66 100.42L180.4 146.284L183.71 148.355C183.71 148.355 188.469 98.0244 185.986 98.0244H180.934C180.635 98.0244 180.339 98.0834 180.063 98.1979C179.787 98.3125 179.536 98.4803 179.324 98.692C179.113 98.9036 178.945 99.1549 178.831 99.4314C178.716 99.708 178.657 100.004 178.657 100.304C178.657 100.343 178.658 100.382 178.66 100.42Z" fill="#2F2E41"/>
<path d="M140.673 145.455C141.816 145.455 142.742 144.528 142.742 143.384C142.742 142.24 141.816 141.313 140.673 141.313C139.53 141.313 138.604 142.24 138.604 143.384C138.604 144.528 139.53 145.455 140.673 145.455Z" fill="#E214FF"/>
<path d="M182.055 147.526C183.198 147.526 184.124 146.599 184.124 145.455C184.124 144.311 183.198 143.384 182.055 143.384C180.913 143.384 179.986 144.311 179.986 145.455C179.986 146.599 180.913 147.526 182.055 147.526Z" fill="#E214FF"/>
<path d="M145.809 47.037V62.7783H149.451L154.086 57.8074L153.465 62.7783H169.562L168.569 57.8074L170.556 62.7783H173.121V47.037H145.809Z" fill="#2F2E41"/>
<path d="M143.326 65.6781C144.012 65.6781 144.568 64.6581 144.568 63.3998C144.568 62.1415 144.012 61.1215 143.326 61.1215C142.64 61.1215 142.085 62.1415 142.085 63.3998C142.085 64.6581 142.64 65.6781 143.326 65.6781Z" fill="#FFB8B8"/>
<path d="M175.19 65.6781C175.876 65.6781 176.432 64.6581 176.432 63.3998C176.432 62.1415 175.876 61.1215 175.19 61.1215C174.505 61.1215 173.949 62.1415 173.949 63.3998C173.949 64.6581 174.505 65.6781 175.19 65.6781Z" fill="#FFB8B8"/>
<path d="M209.633 172.854V174.242C209.634 174.623 209.564 175 209.426 175.355C209.364 175.513 209.29 175.666 209.204 175.812C208.932 176.27 208.546 176.648 208.083 176.911C207.621 177.174 207.098 177.312 206.567 177.312H104.588C104.057 177.312 103.534 177.174 103.071 176.911C102.609 176.648 102.223 176.27 101.951 175.812C101.865 175.666 101.791 175.513 101.729 175.355C101.591 175 101.521 174.623 101.521 174.242V172.854C101.521 172.451 101.6 172.052 101.754 171.679C101.908 171.307 102.134 170.969 102.419 170.684C102.703 170.398 103.041 170.172 103.413 170.018C103.785 169.864 104.184 169.784 104.587 169.784H110.467V169.137C110.467 169.12 110.47 169.104 110.476 169.088C110.483 169.073 110.492 169.058 110.504 169.047C110.516 169.035 110.53 169.025 110.545 169.019C110.561 169.012 110.577 169.009 110.594 169.009H113.661C113.695 169.009 113.728 169.022 113.752 169.046C113.776 169.07 113.789 169.103 113.789 169.137V169.784H115.705V169.137C115.705 169.12 115.709 169.104 115.715 169.088C115.721 169.073 115.731 169.059 115.743 169.047C115.754 169.035 115.769 169.025 115.784 169.019C115.799 169.012 115.816 169.009 115.833 169.009H118.9C118.934 169.009 118.967 169.022 118.991 169.046C119.015 169.07 119.028 169.103 119.028 169.137V169.784H120.946V169.137C120.946 169.12 120.95 169.104 120.956 169.088C120.962 169.073 120.972 169.059 120.984 169.047C120.996 169.035 121.01 169.025 121.025 169.019C121.041 169.012 121.057 169.009 121.074 169.009H124.141C124.175 169.009 124.208 169.022 124.232 169.046C124.256 169.07 124.269 169.103 124.269 169.137V169.784H126.185V169.137C126.185 169.12 126.188 169.104 126.195 169.088C126.201 169.073 126.211 169.059 126.222 169.047C126.234 169.035 126.248 169.025 126.264 169.019C126.279 169.012 126.296 169.009 126.313 169.009H129.38C129.414 169.009 129.446 169.022 129.47 169.046C129.494 169.07 129.508 169.103 129.508 169.137V169.784H131.424V169.137C131.424 169.12 131.427 169.104 131.434 169.088C131.44 169.073 131.449 169.059 131.461 169.047C131.473 169.035 131.487 169.025 131.503 169.019C131.518 169.012 131.535 169.009 131.551 169.009H134.619C134.653 169.009 134.685 169.022 134.709 169.046C134.733 169.07 134.747 169.103 134.747 169.137V169.784H136.665V169.137C136.665 169.12 136.668 169.104 136.675 169.088C136.681 169.073 136.69 169.059 136.702 169.047C136.714 169.035 136.728 169.025 136.744 169.019C136.759 169.012 136.776 169.009 136.793 169.009H139.86C139.894 169.009 139.926 169.022 139.95 169.046C139.974 169.07 139.988 169.103 139.988 169.137V169.784H141.904V169.137C141.904 169.12 141.907 169.104 141.913 169.088C141.92 169.073 141.929 169.059 141.941 169.047C141.953 169.035 141.967 169.025 141.982 169.019C141.998 169.012 142.015 169.009 142.031 169.009H166.056C166.073 169.009 166.09 169.012 166.105 169.019C166.121 169.025 166.135 169.034 166.146 169.046C166.158 169.058 166.168 169.072 166.174 169.088C166.181 169.103 166.184 169.12 166.184 169.137V169.784H168.102V169.137C168.102 169.12 168.106 169.104 168.112 169.088C168.118 169.073 168.128 169.059 168.14 169.047C168.151 169.035 168.165 169.025 168.181 169.019C168.196 169.012 168.213 169.009 168.23 169.009H171.297C171.331 169.009 171.363 169.023 171.387 169.047C171.411 169.071 171.425 169.103 171.425 169.137V169.784H173.341V169.137C173.341 169.12 173.344 169.104 173.351 169.088C173.357 169.073 173.367 169.059 173.378 169.047C173.39 169.035 173.404 169.025 173.42 169.019C173.435 169.012 173.452 169.009 173.469 169.009H176.536C176.553 169.009 176.569 169.012 176.585 169.019C176.6 169.025 176.614 169.035 176.626 169.046C176.638 169.058 176.648 169.072 176.654 169.088C176.661 169.103 176.664 169.12 176.664 169.137V169.784H178.58V169.137C178.58 169.12 178.583 169.104 178.59 169.088C178.596 169.073 178.605 169.059 178.617 169.047C178.629 169.035 178.643 169.025 178.659 169.019C178.674 169.012 178.691 169.009 178.707 169.009H181.775C181.792 169.009 181.808 169.012 181.824 169.019C181.839 169.025 181.853 169.035 181.865 169.046C181.877 169.058 181.886 169.072 181.893 169.088C181.899 169.103 181.903 169.12 181.903 169.137V169.784H183.821V169.137C183.821 169.12 183.824 169.104 183.831 169.088C183.837 169.073 183.846 169.059 183.858 169.047C183.87 169.035 183.884 169.025 183.9 169.019C183.915 169.012 183.932 169.009 183.948 169.009H187.016C187.049 169.009 187.081 169.023 187.105 169.047C187.129 169.071 187.142 169.103 187.141 169.137V169.784H189.06V169.137C189.06 169.12 189.063 169.104 189.069 169.088C189.076 169.073 189.085 169.059 189.097 169.047C189.109 169.035 189.123 169.025 189.138 169.019C189.154 169.012 189.17 169.009 189.187 169.009H192.255C192.271 169.009 192.288 169.012 192.303 169.019C192.319 169.025 192.333 169.035 192.345 169.046C192.357 169.058 192.366 169.072 192.373 169.088C192.379 169.103 192.382 169.12 192.382 169.137V169.784H194.299V169.137C194.298 169.12 194.302 169.104 194.308 169.088C194.315 169.073 194.324 169.059 194.336 169.047C194.348 169.035 194.362 169.025 194.377 169.019C194.393 169.012 194.409 169.009 194.426 169.009H197.493C197.51 169.009 197.527 169.012 197.542 169.019C197.558 169.025 197.572 169.035 197.584 169.046C197.596 169.058 197.605 169.072 197.611 169.088C197.618 169.103 197.621 169.12 197.621 169.137V169.784H206.566C207.38 169.784 208.16 170.107 208.735 170.682C209.31 171.258 209.633 172.038 209.633 172.852L209.633 172.854Z" fill="#3F3D56"/>
<path d="M293.65 176.954H71.8925V177.411H293.65V176.954Z" fill="#3F3D56"/>
<path d="M201.422 114.416H108.009C107.672 114.416 107.337 114.482 107.025 114.612C106.713 114.741 106.43 114.931 106.191 115.17C105.952 115.409 105.763 115.692 105.634 116.005C105.505 116.317 105.438 116.651 105.438 116.989V169.09C105.438 169.773 105.709 170.428 106.191 170.91C106.673 171.393 107.327 171.664 108.009 171.664H201.422C202.104 171.664 202.758 171.393 203.24 170.91C203.722 170.428 203.993 169.773 203.993 169.09V116.989C203.993 116.307 203.722 115.652 203.24 115.17C202.758 114.687 202.104 114.416 201.422 114.416Z" fill="#3F3D56"/>
<path d="M154.79 138.32C157.944 138.32 160.5 135.762 160.5 132.605C160.5 129.449 157.944 126.89 154.79 126.89C151.637 126.89 149.081 129.449 149.081 132.605C149.081 135.762 151.637 138.32 154.79 138.32Z" fill="#E214FF"/>
<path d="M190.133 94.849L218.955 65.7703H232.562V65.313H218.764L218.697 65.3809L189.809 94.5276L190.133 94.849Z" fill="#3F3D56"/>
<path d="M282.575 53.8318H249.182V56.8105H282.575V53.8318Z" fill="#E214FF"/>
<path d="M245.112 58.6939H238.043V51.6174H245.112V58.6939ZM238.499 58.2367H244.655V52.0746H238.499L238.499 58.2367Z" fill="#3F3D56"/>
<path d="M282.575 63.7606H249.182V66.7393H282.575V63.7606Z" fill="#E214FF"/>
<path d="M245.112 68.6227H238.043V61.5463H245.112V68.6227ZM238.499 68.1655H244.655V62.0035H238.499L238.499 68.1655Z" fill="#3F3D56"/>
<path d="M282.575 73.6895H249.182V76.6681H282.575V73.6895Z" fill="#E214FF"/>
<path d="M245.112 78.5514H238.043V71.475H245.112V78.5514ZM238.499 78.0942H244.655V71.9322H238.499L238.499 78.0942Z" fill="#3F3D56"/>
<rect x="333.988" y="105.811" width="77.0309" height="33.7258" rx="3" stroke="white" stroke-width="2"/>
<path d="M307.403 150.844C314.998 150.844 321.155 144.692 321.155 137.103C321.155 129.514 314.998 123.362 307.403 123.362C299.808 123.362 293.651 129.514 293.651 137.103C293.651 144.692 299.808 150.844 307.403 150.844Z" fill="#A0616A"/>
<path d="M341.165 127.644C341.301 127.752 341.432 127.866 341.559 127.987C342.191 128.582 342.69 129.303 343.023 130.104C343.357 130.904 343.517 131.766 343.494 132.633C343.47 133.5 343.264 134.352 342.888 135.134C342.512 135.916 341.975 136.609 341.312 137.169C341.157 137.299 340.996 137.42 340.829 137.533L341.76 168.931C341.786 169.958 341.48 170.967 340.887 171.808C340.295 172.648 339.446 173.275 338.469 173.596L338.412 173.608L312.898 176.323C312.204 176.397 311.503 176.332 310.834 176.134C310.166 175.935 309.543 175.606 309.002 175.166C308.462 174.725 308.014 174.182 307.684 173.568C307.355 172.953 307.15 172.28 307.083 171.586C307.015 170.893 307.086 170.192 307.291 169.526C307.496 168.86 307.831 168.241 308.276 167.704C308.722 167.168 309.27 166.725 309.887 166.402C310.505 166.078 311.181 165.88 311.876 165.819L330.063 164.218L333.209 137.027C333.003 136.845 332.81 136.649 332.632 136.44C331.646 135.274 331.129 133.783 331.181 132.257C331.233 130.732 331.851 129.279 332.914 128.183C333.978 127.087 335.411 126.425 336.936 126.325C338.461 126.225 339.968 126.696 341.165 127.644H341.165Z" fill="#A0616A"/>
<path d="M330.053 327.452H336.918L340.184 300.995H330.052L330.053 327.452Z" fill="#A0616A"/>
<path d="M328.302 325.212L341.821 325.212H341.822C342.953 325.212 344.073 325.434 345.119 325.867C346.164 326.3 347.114 326.934 347.914 327.733C348.714 328.532 349.348 329.481 349.781 330.526C350.214 331.57 350.437 332.69 350.437 333.82V334.1L328.303 334.101L328.302 325.212Z" fill="#2F2E41"/>
<path d="M261.822 317.968L267.721 321.477L284.074 300.414L275.368 295.235L261.822 317.968Z" fill="#A0616A"/>
<path d="M261.465 315.149L273.081 322.059L273.081 322.06C274.053 322.638 274.902 323.402 275.578 324.308C276.255 325.214 276.746 326.244 277.024 327.34C277.303 328.436 277.362 329.576 277.199 330.695C277.036 331.813 276.655 332.889 276.076 333.86L275.933 334.101L256.914 322.786L261.465 315.149Z" fill="#2F2E41"/>
<path d="M338.538 319.005H330.851C330.229 319.006 329.628 318.776 329.165 318.36C328.702 317.944 328.41 317.372 328.345 316.753L320.596 243.967C320.576 243.783 320.497 243.612 320.37 243.478C320.243 243.344 320.076 243.256 319.894 243.227C319.712 243.198 319.525 243.229 319.363 243.316C319.2 243.404 319.071 243.542 318.995 243.71L305.015 274.641L280.264 314.969C279.943 315.486 279.447 315.87 278.867 316.052C278.286 316.233 277.659 316.199 277.101 315.957L267.213 311.61C266.886 311.466 266.594 311.254 266.355 310.989C266.116 310.724 265.936 310.41 265.828 310.07C265.719 309.73 265.684 309.371 265.725 309.017C265.766 308.662 265.882 308.32 266.065 308.014L288.818 269.946L295.796 237.872C293.601 223.963 303.01 203.283 303.106 203.075L303.152 202.974L329.069 192.853L329.199 193.012C339.42 226.526 345.648 262.593 341.049 316.698C340.993 317.326 340.704 317.91 340.24 318.336C339.775 318.763 339.169 319.001 338.538 319.005Z" fill="#2F2E41"/>
<path d="M302.108 206.363L301.987 206.11C301.93 205.989 296.167 193.844 291.725 180.864C290.871 178.354 290.548 175.694 290.777 173.053C291.005 170.411 291.781 167.847 293.053 165.52C294.342 163.17 296.106 161.113 298.232 159.479C300.358 157.845 302.801 156.67 305.406 156.029C309.927 154.946 314.687 155.523 318.819 157.653C322.951 159.783 326.179 163.325 327.916 167.635C331.44 176.439 330.317 185.837 329.26 193.228L329.239 193.376L329.104 193.441L302.108 206.363Z" fill="#3F3D56"/>
<path d="M324.077 129.341H302.24V119.83C307.033 117.927 311.723 116.309 314.559 119.83C317.083 119.83 319.504 120.832 321.289 122.615C323.075 124.399 324.077 126.818 324.077 129.341V129.341Z" fill="#2F2E41"/>
<path d="M301.031 118.151C287.976 118.151 284.322 134.502 284.322 143.726C284.322 148.87 286.651 150.71 290.309 151.332L291.602 144.447L294.628 151.629C295.656 151.634 296.735 151.614 297.855 151.593L298.881 149.482L301.169 151.555C310.333 151.569 317.74 152.904 317.74 143.726C317.74 134.502 314.535 118.151 301.031 118.151Z" fill="#2F2E41"/>
<path d="M359.058 136.45C359.141 136.602 359.218 136.759 359.288 136.919C359.64 137.712 359.819 138.57 359.816 139.438C359.812 140.305 359.625 141.161 359.266 141.951C358.908 142.741 358.387 143.447 357.737 144.021C357.087 144.596 356.323 145.027 355.494 145.286C355.302 145.345 355.106 145.395 354.908 145.434L343.572 174.732C343.197 175.69 342.524 176.501 341.651 177.046C340.778 177.591 339.753 177.84 338.727 177.756L338.67 177.745L314.101 170.355C313.433 170.154 312.812 169.823 312.273 169.38C311.733 168.938 311.287 168.393 310.96 167.778C310.633 167.162 310.431 166.488 310.366 165.794C310.301 165.1 310.374 164.4 310.581 163.734C310.788 163.069 311.125 162.451 311.573 161.916C312.02 161.381 312.57 160.941 313.189 160.619C313.808 160.298 314.484 160.102 315.179 160.043C315.875 159.985 316.574 160.064 317.239 160.277L334.623 165.854L348.081 142.013C347.962 141.766 347.861 141.51 347.778 141.249C347.322 139.792 347.424 138.217 348.065 136.831C348.705 135.445 349.839 134.346 351.245 133.748C352.65 133.15 354.229 133.096 355.672 133.595C357.116 134.094 358.323 135.112 359.058 136.45H359.058Z" fill="#A0616A"/>
<path d="M382.791 129.69L389.995 122.508L382.791 115.327L384.988 113.138L394.387 122.508L384.988 131.879L382.791 129.69Z" fill="#E6E6E6"/>
<path d="M365.148 119.627H362.22V122.555H365.148V119.627Z" fill="#E6E6E6"/>
<path d="M376.92 119.627H373.992V122.555H376.92V119.627Z" fill="#E6E6E6"/>
<path d="M371.034 119.627H368.106V122.555H371.034V119.627Z" fill="#E6E6E6"/>
<path d="M358.252 129.617L351.041 122.435L358.245 115.253L356.049 113.065L346.656 122.435L356.056 131.806L358.252 129.617Z" fill="#E6E6E6"/>
<path d="M382.791 128.299L389.995 121.117L382.791 113.936L384.988 111.747L394.387 121.117L384.988 130.488L382.791 128.299Z" fill="#E214FF"/>
<path d="M362.22 121.63H365.148V118.701H362.22L362.22 121.63ZM376.92 118.701H373.992V121.63H376.92V118.701ZM368.106 121.63H371.034V118.701H368.106V121.63Z" fill="#E214FF"/>
<path d="M358.252 128.226L351.041 121.044L358.245 113.862L356.049 111.674L346.656 121.044L356.056 130.415L358.252 128.226Z" fill="#E214FF"/>
<rect x="333.988" y="107.051" width="77.0309" height="33.7258" rx="3" stroke="white" stroke-width="2"/>
<path d="M307.403 152.084C314.998 152.084 321.155 145.932 321.155 138.343C321.155 130.754 314.998 124.601 307.403 124.601C299.808 124.601 293.651 130.754 293.651 138.343C293.651 145.932 299.808 152.084 307.403 152.084Z" fill="#A0616A"/>
<path d="M341.165 128.884C341.301 128.992 341.432 129.106 341.559 129.226C342.191 129.821 342.69 130.542 343.023 131.343C343.357 132.144 343.517 133.006 343.494 133.873C343.47 134.74 343.264 135.592 342.888 136.374C342.512 137.155 341.975 137.849 341.312 138.409C341.157 138.538 340.996 138.66 340.829 138.772L341.76 170.17C341.786 171.198 341.48 172.207 340.887 173.048C340.295 173.888 339.446 174.515 338.469 174.836L338.412 174.848L312.898 177.563C312.204 177.636 311.503 177.572 310.834 177.373C310.166 177.175 309.543 176.846 309.002 176.405C308.462 175.965 308.014 175.422 307.684 174.807C307.355 174.193 307.151 173.52 307.083 172.826C307.016 172.132 307.086 171.432 307.291 170.766C307.496 170.099 307.831 169.48 308.276 168.944C308.722 168.408 309.27 167.965 309.887 167.641C310.505 167.318 311.181 167.12 311.876 167.058L330.063 165.458L333.209 138.267C333.003 138.085 332.81 137.889 332.632 137.68C331.646 136.514 331.129 135.023 331.181 133.497C331.233 131.971 331.851 130.519 332.914 129.423C333.978 128.326 335.411 127.664 336.936 127.565C338.461 127.465 339.968 127.935 341.165 128.884H341.165Z" fill="#A0616A"/>
<path d="M330.053 328.691H336.918L340.184 302.235H330.052L330.053 328.691Z" fill="#A0616A"/>
<path d="M328.302 326.452L341.821 326.451H341.822C342.953 326.451 344.073 326.674 345.119 327.107C346.164 327.539 347.114 328.173 347.914 328.973C348.714 329.772 349.348 330.721 349.781 331.765C350.214 332.81 350.437 333.929 350.437 335.06V335.339L328.303 335.34L328.302 326.452Z" fill="#2F2E41"/>
<path d="M261.822 319.208L267.721 322.717L284.074 301.654L275.368 296.475L261.822 319.208Z" fill="#A0616A"/>
<path d="M261.465 316.389L273.081 323.299L273.081 323.299C274.053 323.878 274.902 324.642 275.578 325.548C276.255 326.454 276.746 327.484 277.024 328.58C277.303 329.676 277.362 330.815 277.199 331.934C277.036 333.053 276.655 334.129 276.076 335.1L275.933 335.34L256.914 324.026L261.465 316.389Z" fill="#2F2E41"/>
<path d="M338.538 320.245H330.851C330.229 320.246 329.628 320.016 329.165 319.6C328.702 319.184 328.41 318.611 328.345 317.993L320.596 245.206C320.576 245.023 320.497 244.851 320.37 244.718C320.243 244.584 320.076 244.496 319.894 244.467C319.712 244.437 319.525 244.469 319.363 244.556C319.2 244.643 319.071 244.782 318.995 244.949L305.015 275.881L280.264 316.209C279.943 316.725 279.447 317.11 278.867 317.291C278.286 317.473 277.659 317.439 277.101 317.196L267.213 312.849C266.886 312.706 266.594 312.494 266.355 312.229C266.116 311.963 265.936 311.65 265.828 311.31C265.719 310.97 265.684 310.611 265.725 310.256C265.766 309.902 265.882 309.56 266.065 309.253L288.818 271.186L295.796 239.112C293.601 225.202 303.01 204.523 303.106 204.315L303.152 204.214L329.069 194.092L329.199 194.251C339.42 227.766 345.648 263.833 341.049 317.938C340.993 318.565 340.704 319.15 340.24 319.576C339.775 320.002 339.169 320.241 338.538 320.245Z" fill="#2F2E41"/>
<path d="M302.108 207.603L301.987 207.35C301.93 207.228 296.167 195.084 291.725 182.104C290.871 179.593 290.548 176.934 290.777 174.292C291.005 171.651 291.781 169.086 293.053 166.76C294.342 164.41 296.106 162.352 298.232 160.719C300.358 159.085 302.801 157.91 305.406 157.269C309.927 156.186 314.687 156.762 318.819 158.892C322.951 161.023 326.179 164.565 327.916 168.874C331.44 177.679 330.317 187.077 329.26 194.468L329.239 194.616L329.104 194.68L302.108 207.603Z" fill="#3F3D56"/>
<path d="M324.077 130.58H302.24V121.069C307.033 119.167 311.723 117.548 314.559 121.069C317.083 121.069 319.504 122.071 321.289 123.855C323.075 125.639 324.077 128.058 324.077 130.58V130.58Z" fill="#2F2E41"/>
<path d="M301.031 119.391C287.976 119.391 284.322 135.741 284.322 144.965C284.322 150.11 286.651 151.95 290.309 152.572L291.601 145.686L294.628 152.868C295.655 152.874 296.735 152.854 297.854 152.833L298.881 150.722L301.169 152.795C310.333 152.809 317.74 154.143 317.74 144.965C317.74 135.741 314.535 119.391 301.031 119.391Z" fill="#2F2E41"/>
<path d="M359.058 137.69C359.141 137.842 359.218 137.998 359.288 138.159C359.64 138.952 359.819 139.81 359.816 140.677C359.812 141.544 359.625 142.401 359.266 143.191C358.908 143.981 358.387 144.686 357.737 145.261C357.087 145.836 356.323 146.267 355.494 146.525C355.302 146.585 355.106 146.634 354.908 146.673L343.572 175.972C343.198 176.929 342.524 177.741 341.651 178.286C340.778 178.83 339.753 179.079 338.727 178.996L338.67 178.985L314.101 171.594C313.433 171.394 312.812 171.062 312.273 170.62C311.733 170.178 311.287 169.633 310.96 169.017C310.633 168.402 310.431 167.728 310.366 167.034C310.301 166.34 310.374 165.64 310.581 164.974C310.788 164.308 311.125 163.69 311.573 163.156C312.02 162.621 312.57 162.18 313.189 161.859C313.808 161.537 314.484 161.342 315.179 161.283C315.875 161.224 316.574 161.304 317.239 161.517L334.623 167.094L348.081 143.253C347.962 143.006 347.861 142.75 347.778 142.488C347.322 141.031 347.424 139.457 348.065 138.071C348.705 136.685 349.839 135.586 351.245 134.988C352.65 134.39 354.229 134.335 355.673 134.835C357.116 135.334 358.323 136.352 359.058 137.69H359.058Z" fill="#A0616A"/>
<path d="M382.791 130.929L389.995 123.748L382.791 116.566L384.988 114.377L394.387 123.748L384.988 133.118L382.791 130.929Z" fill="#E6E6E6"/>
<path d="M365.148 120.867H362.22V123.795H365.148V120.867Z" fill="#E6E6E6"/>
<path d="M376.92 120.867H373.992V123.795H376.92V120.867Z" fill="#E6E6E6"/>
<path d="M371.034 120.867H368.106V123.795H371.034V120.867Z" fill="#E6E6E6"/>
<path d="M358.252 130.856L351.041 123.675L358.245 116.493L356.049 114.304L346.656 123.675L356.056 133.045L358.252 130.856Z" fill="#E6E6E6"/>
<path d="M382.791 129.539L389.995 122.357L382.791 115.175L384.988 112.986L394.387 122.357L384.988 131.728L382.791 129.539Z" fill="#E214FF"/>
<path d="M362.22 122.869H365.148V119.941H362.22L362.22 122.869ZM376.92 119.941H373.992V122.869H376.92V119.941ZM368.106 122.869H371.034V119.941H368.106V122.869Z" fill="#E214FF"/>
<path d="M358.252 129.465L351.041 122.284L358.245 115.102L356.049 112.913L346.656 122.284L356.056 131.654L358.252 129.465Z" fill="#E214FF"/>
<path d="M36.9965 73.3549V61.666H38.5753V73.3549H36.9965ZM31.9368 68.2952V66.7256H43.6349V68.2952H31.9368Z" fill="white"/>
<path d="M869.763 207.126V195.437H871.341V207.126H869.763ZM864.703 202.067V200.497H876.401V202.067H864.703Z" fill="white"/>
<path d="M218.867 281.301V269.613H220.446V281.301H218.867ZM213.807 276.242V274.672H225.506V276.242H213.807Z" fill="white"/>
<path d="M912.817 305.554C929.676 314.305 937.171 333.359 937.171 333.359C937.171 333.359 917.334 338.224 900.475 329.473C883.616 320.722 876.121 301.669 876.121 301.669C876.121 301.669 895.959 296.804 912.817 305.554Z" fill="#F1F1F1"/>
<path d="M908.426 312.858C918.486 329.003 938.027 334.955 938.027 334.955C938.027 334.955 941.257 314.73 931.197 298.585C921.137 282.439 901.596 276.488 901.596 276.488C901.596 276.488 898.366 296.713 908.426 312.858Z" fill="#F1F1F1"/>
<path d="M968.98 335.34H863.808C863.563 335.34 863.328 335.243 863.155 335.069C862.982 334.896 862.885 334.66 862.885 334.415C862.885 334.17 862.982 333.934 863.155 333.761C863.328 333.587 863.563 333.49 863.808 333.49H968.98C969.225 333.49 969.459 333.587 969.632 333.761C969.806 333.934 969.903 334.17 969.903 334.415C969.903 334.66 969.806 334.896 969.632 335.069C969.459 335.243 969.225 335.34 968.98 335.34Z" fill="#F1F1F1"/>
<path d="M969.932 318.512C967.894 318.64 966.767 316.107 968.31 314.631L968.463 314.021C968.443 313.972 968.422 313.923 968.402 313.874C966.34 308.959 959.354 308.993 957.31 313.916C955.496 318.285 953.186 322.662 952.617 327.282C952.362 329.321 952.477 331.399 952.93 333.4C948.679 324.114 946.442 313.975 946.442 303.778C946.442 301.216 946.582 298.654 946.869 296.098C947.105 294.008 947.43 291.93 947.85 289.872C950.125 278.744 955.052 268.146 962.158 259.293C965.574 257.426 968.422 254.507 970.143 251.008C970.761 249.747 971.246 248.389 971.475 247.006C971.086 247.057 970.009 241.136 970.303 240.773C969.761 239.951 968.791 239.542 968.199 238.74C965.257 234.751 961.202 235.447 959.086 240.869C954.565 243.151 954.521 246.935 957.295 250.575C959.06 252.891 959.303 256.024 960.851 258.503C960.692 258.707 960.526 258.905 960.367 259.109C957.445 262.856 954.918 266.884 952.788 271.116C953.39 266.413 952.501 260.747 950.986 257.095C949.261 252.933 946.027 249.429 943.18 245.831C939.76 241.51 932.747 243.396 932.145 248.874C932.139 248.927 932.133 248.98 932.128 249.033C932.551 249.271 932.965 249.525 933.37 249.792C935.678 251.319 934.88 254.898 932.145 255.32L932.083 255.329C932.236 256.853 932.497 258.363 932.88 259.848C929.227 273.974 937.113 279.118 948.373 279.35C948.621 279.477 948.863 279.604 949.112 279.726C947.971 282.938 947.06 286.232 946.384 289.572C945.779 292.523 945.358 295.505 945.122 298.501C944.829 302.28 944.855 306.078 945.173 309.851L945.154 309.717C944.345 305.562 942.089 301.681 938.813 298.991C933.933 294.983 927.039 293.507 921.774 290.284C919.24 288.733 915.992 290.738 916.435 293.676L916.456 293.817C917.24 294.135 918.005 294.505 918.744 294.919C919.167 295.158 919.581 295.411 919.986 295.679C922.295 297.205 921.497 300.784 918.762 301.206L918.7 301.216C918.655 301.222 918.617 301.228 918.572 301.235C919.917 304.428 921.791 307.391 924.136 309.947C926.42 322.278 936.229 323.448 946.722 319.857H946.728C947.876 324.854 949.552 329.735 951.706 334.388H969.487C969.551 334.19 969.608 333.986 969.665 333.789C968.021 333.891 966.364 333.795 964.745 333.495C966.064 331.877 967.384 330.245 968.703 328.626C968.735 328.594 968.76 328.563 968.786 328.531C969.455 327.702 970.13 326.88 970.8 326.052L970.8 326.051C970.842 323.507 970.536 320.972 969.932 318.512Z" fill="#F1F1F1"/>
<path d="M420.783 335.343H382.176C382.086 335.343 382 335.307 381.937 335.243C381.873 335.18 381.837 335.093 381.837 335.003C381.837 334.913 381.873 334.827 381.937 334.763C382 334.699 382.086 334.663 382.176 334.663H420.783C420.873 334.663 420.959 334.699 421.022 334.763C421.086 334.827 421.122 334.913 421.122 335.003C421.122 335.093 421.086 335.18 421.022 335.243C420.959 335.307 420.873 335.343 420.783 335.343Z" fill="white"/>
<path d="M410.186 326.747C411.246 326.813 411.832 325.496 411.03 324.728L410.95 324.411C410.961 324.385 410.971 324.36 410.982 324.335C412.054 321.778 415.688 321.796 416.751 324.356C417.694 326.629 418.895 328.905 419.191 331.307C419.324 332.368 419.264 333.449 419.029 334.489C421.239 329.66 422.403 324.387 422.403 319.084C422.403 317.751 422.33 316.419 422.181 315.09C422.058 314.003 421.889 312.922 421.67 311.852C420.487 306.064 417.925 300.553 414.229 295.949C412.453 294.978 410.971 293.46 410.076 291.64C409.755 290.984 409.503 290.278 409.384 289.558C409.586 289.585 410.146 286.506 409.993 286.317C410.275 285.889 410.78 285.677 411.087 285.26C412.618 283.185 414.726 283.547 415.827 286.367C418.178 287.553 418.201 289.522 416.758 291.415C415.84 292.619 415.714 294.248 414.909 295.538C414.992 295.644 415.078 295.747 415.161 295.853C416.68 297.802 417.994 299.896 419.102 302.097C418.789 299.651 419.252 296.705 420.04 294.805C420.937 292.641 422.618 290.818 424.099 288.947C425.878 286.7 429.525 287.681 429.838 290.53C429.841 290.557 429.844 290.585 429.847 290.612C429.627 290.737 429.412 290.868 429.201 291.008C428.001 291.802 428.416 293.663 429.838 293.882L429.87 293.887C429.791 294.679 429.655 295.465 429.456 296.237C431.356 303.583 427.255 306.259 421.399 306.379C421.269 306.446 421.143 306.512 421.014 306.575C421.607 308.245 422.081 309.959 422.433 311.696C422.748 313.23 422.966 314.781 423.089 316.339C423.241 318.305 423.228 320.28 423.062 322.242L423.072 322.173C423.493 320.012 424.667 317.993 426.37 316.595C428.908 314.51 432.494 313.742 435.232 312.066C436.55 311.26 438.239 312.302 438.009 313.83L437.997 313.903C437.59 314.069 437.192 314.261 436.808 314.477C436.588 314.601 436.372 314.732 436.162 314.872C434.961 315.666 435.376 317.527 436.799 317.746L436.831 317.751C436.854 317.755 436.874 317.758 436.897 317.761C436.198 319.422 435.223 320.963 434.003 322.292C432.816 328.705 427.714 329.314 422.257 327.446H422.254C421.657 330.045 420.785 332.584 419.665 335.003H410.418C410.385 334.9 410.355 334.794 410.325 334.691C411.18 334.745 412.042 334.695 412.884 334.539C412.198 333.697 411.512 332.849 410.825 332.007C410.809 331.99 410.796 331.974 410.782 331.957C410.434 331.526 410.083 331.099 409.735 330.668L409.735 330.667C409.713 329.345 409.872 328.026 410.186 326.747L410.186 326.747V326.747Z" fill="white"/>
<path d="M378.58 325.976C379.775 326.065 380.453 324.587 379.559 323.711L379.473 323.352C379.485 323.324 379.498 323.295 379.51 323.267C380.753 320.398 384.85 320.467 386.014 323.368C387.048 325.943 388.372 328.525 388.674 331.239C388.809 332.436 388.727 333.654 388.448 334.824C391.005 329.408 392.388 323.478 392.458 317.498C392.476 315.995 392.412 314.492 392.261 312.991C392.137 311.764 391.961 310.543 391.729 309.333C390.472 302.792 387.656 296.542 383.55 291.302C381.56 290.183 379.91 288.451 378.925 286.388C378.571 285.643 378.296 284.844 378.171 284.031C378.399 284.064 379.072 280.599 378.902 280.384C379.226 279.906 379.797 279.673 380.15 279.206C381.903 276.887 384.276 277.324 385.48 280.518C388.115 281.888 388.115 284.107 386.462 286.223C385.411 287.568 385.247 289.404 384.322 290.847C384.414 290.968 384.51 291.085 384.602 291.206C386.289 293.424 387.743 295.803 388.963 298.3C388.643 295.537 389.203 292.221 390.117 290.09C391.158 287.661 393.078 285.628 394.773 283.538C396.808 281.028 400.908 282.183 401.223 285.399C401.226 285.43 401.229 285.461 401.232 285.493C400.983 285.63 400.738 285.775 400.499 285.929C399.134 286.809 399.577 288.913 401.178 289.179L401.215 289.185C401.114 290.078 400.951 290.962 400.716 291.83C402.76 300.139 398.1 303.101 391.495 303.159C391.349 303.232 391.206 303.305 391.059 303.374C391.706 305.266 392.217 307.204 392.59 309.167C392.925 310.902 393.151 312.654 393.269 314.412C393.414 316.631 393.373 318.858 393.16 321.068L393.172 320.99C393.676 318.559 395.026 316.298 396.965 314.744C399.855 312.427 403.908 311.609 407.018 309.756C408.515 308.864 410.405 310.062 410.126 311.782L410.112 311.864C409.65 312.046 409.199 312.257 408.763 312.495C408.513 312.632 408.268 312.778 408.029 312.932C406.665 313.811 407.108 315.915 408.709 316.182L408.745 316.188C408.771 316.192 408.794 316.196 408.82 316.2C408.009 318.063 406.89 319.788 405.497 321.27C404.072 328.486 398.311 329.104 392.182 326.925L392.179 326.925C391.471 329.848 390.454 332.699 389.159 335.412L378.732 335.289C378.695 335.173 378.663 335.053 378.631 334.936C379.595 335.008 380.567 334.963 381.518 334.799C380.756 333.84 379.994 332.874 379.231 331.916C379.213 331.897 379.198 331.878 379.183 331.859C378.797 331.369 378.406 330.882 378.019 330.391L378.019 330.391C378.012 328.899 378.209 327.414 378.58 325.976L378.58 325.976L378.58 325.976Z" fill="white"/>
<circle cx="5.27779" cy="42.4798" r="3.81875" stroke="white" stroke-width="2"/>
<circle cx="853.652" cy="223.379" r="4.92656" stroke="white" stroke-width="2"/>
<path d="M936.18 88.8623C936.18 88.8623 942.858 87.9927 943.763 83.9856C944.669 79.9786 951.346 79.1089 951.346 79.1089" stroke="white" stroke-width="2"/>
<path d="M164.82 285.165C164.82 285.165 171.498 284.296 172.403 280.289C173.308 276.282 179.986 275.412 179.986 275.412" stroke="white" stroke-width="2"/>
</svg>
