<svg width="159" height="49" viewBox="0 0 159 49" fill="none" xmlns="http://www.w3.org/2000/svg">
<g clip-path="url(#clip0_66_592)">
<path d="M1.0542 34.2312V1.09094H6.86979V34.2312H1.0542Z" fill="black"/>
<path d="M21.7564 10.1891C14.3001 10.1891 9.1402 15.9279 9.1402 22.4965C9.1402 29.8275 14.7536 34.8777 21.8144 34.8777C28.5155 34.8777 34.3306 29.9204 34.3306 22.4807C34.3306 16.2246 29.512 10.1891 21.7564 10.1891V10.1891ZM21.688 15.805C25.5901 15.805 28.4623 18.8455 28.4623 22.5176C28.4623 26.411 25.2956 29.2513 21.7933 29.2513C17.655 29.2513 15.0506 25.968 15.0506 22.5281C15.0506 18.7577 17.991 15.805 21.688 15.805V15.805Z" fill="black"/>
<path d="M48.9423 10.1891C41.4859 10.1891 36.326 15.9279 36.326 22.4965C36.326 29.8275 41.9394 34.8777 49.0002 34.8777C55.7013 34.8777 61.5164 29.9204 61.5164 22.4807C61.5164 18.0996 59.621 16.1557 59.621 16.1557L61.2329 15.6024V10.8777H52.9731C52.9731 10.8777 51.1825 10.1891 48.9423 10.1891V10.1891ZM48.8738 15.805C52.7759 15.805 55.6481 18.8455 55.6481 22.5176C55.6481 26.411 52.4814 29.2513 48.9791 29.2513C44.8408 29.2513 42.2364 25.968 42.2364 22.5281C42.2364 18.7577 45.1768 15.805 48.8738 15.805V15.805Z" fill="black"/>
<path d="M55.607 35.851C55.607 39.7445 52.4403 42.6058 48.938 42.6058C44.7997 42.6058 42.1848 39.2909 42.1848 35.851H36.2849C36.2849 43.1819 41.8983 48.2322 48.9591 48.2322C55.6602 48.2322 61.4752 43.2907 61.4752 35.851H55.607Z" fill="black"/>
<path d="M63.8457 34.2311V10.8777H69.6613V34.2311H63.8457Z" fill="black"/>
<path d="M75.3084 34.2311V16.1086H72.1898V10.8777H75.3084V3.70636H81.124V10.8777H84.3267V16.1086H81.124V34.2311H75.3084Z" fill="black"/>
<path d="M70.5925 4.24492C70.5925 6.37395 68.8683 8.09988 66.7414 8.09988C64.6145 8.09988 62.8903 6.37395 62.8903 4.24492C62.8903 2.11588 64.6145 0.389954 66.7414 0.389954C68.8683 0.389954 70.5925 2.11588 70.5925 4.24492Z" fill="black"/>
<path d="M97.4013 10.1733C89.9096 10.1733 85.08 15.9151 85.08 22.7074C85.08 29.7265 89.9257 34.8935 97.5224 34.8935C104.609 34.8935 108.095 30.4641 108.095 30.4641L104.207 26.5673C104.207 26.5673 101.272 29.7364 97.5962 29.7364C94.5321 29.7364 92.0822 28.0244 91.2275 24.8851H109.349V23.2821C109.349 16.8859 105.65 10.1733 97.4013 10.1733V10.1733ZM97.2169 15.2987C99.896 15.2987 102.636 16.7334 103.248 20.1605H91.0695C91.5518 17.7515 93.6572 15.2987 97.2169 15.2987Z" fill="black"/>
<path d="M123.895 34.8965C116.382 34.8965 111.263 29.1687 111.263 22.4152C111.263 15.4456 117.049 10.1689 123.871 10.1689C130.466 10.1689 133.842 14.8295 133.842 14.8295L129.785 18.8721C129.785 18.8721 127.435 15.8327 123.843 15.8327C119.862 15.8327 117.14 18.8811 117.14 22.5046C117.14 26.3306 120.036 29.266 123.799 29.266C127.448 29.266 129.78 26.2315 129.78 26.2315L133.877 30.2719C133.877 30.2719 130.534 34.8965 123.895 34.8965V34.8965Z" fill="black"/>
<path d="M135.993 34.248V1.00653H141.808V13.2196C141.808 13.2196 144.035 10.1689 148.879 10.1689C154.969 10.1689 158.497 14.7003 158.497 20.4958V34.248H152.681V21.3757C152.681 17.4821 150.259 15.8668 147.577 15.8668C144.52 15.8668 141.808 17.608 141.808 21.677V34.248H135.993Z" fill="black"/>
</g>
<defs>
<clipPath id="clip0_66_592">
<rect width="157.6" height="48" fill="white" transform="translate(0.975403 0.311035)"/>
</clipPath>
</defs>
</svg>
