<svg width="42" height="42" viewBox="0 0 42 42" fill="none" xmlns="http://www.w3.org/2000/svg">
<path d="M39.3003 32.2669C37.8004 30.7557 34.1679 28.5503 32.4055 27.6616C30.1104 26.5055 29.9215 26.4111 28.1175 27.7513C26.9142 28.6457 26.1142 29.4448 24.706 29.1444C23.2978 28.8441 20.2376 27.1506 17.5581 24.4796C14.8785 21.8085 13.0868 18.6596 12.7855 17.2561C12.4843 15.8526 13.2965 15.062 14.1825 13.8559C15.4311 12.1558 15.3366 11.8725 14.2693 9.57735C13.4372 7.79226 11.1676 4.19374 9.65078 2.70144C8.02814 1.09864 8.02814 1.38198 6.98259 1.81645C6.13138 2.17459 5.31476 2.60993 4.54296 3.11702C3.03177 4.12101 2.19306 4.955 1.60653 6.20834C1.02 7.46169 0.756488 10.4 3.78548 15.9026C6.81447 21.4052 8.93957 24.2189 13.3381 28.6051C17.7366 32.9913 21.1188 35.3497 26.0632 38.1228C32.1798 41.5484 34.5259 40.8807 35.783 40.2951C37.0401 39.7095 37.8779 38.8784 38.8838 37.3672C39.3922 36.5967 39.8285 35.781 40.1872 34.9304C40.6226 33.8886 40.9059 33.8886 39.3003 32.2669Z" stroke="#E214FF" stroke-width="2" stroke-miterlimit="10"/>
</svg>
