<svg width="126" height="167" viewBox="0 0 126 167" fill="none" xmlns="http://www.w3.org/2000/svg">
<path d="M93.4693 51.7366C96.589 51.7366 99.1181 49.2109 99.1181 46.0953C99.1181 42.9798 96.589 40.4541 93.4693 40.4541C90.3495 40.4541 87.8205 42.9798 87.8205 46.0953C87.8205 49.2109 90.3495 51.7366 93.4693 51.7366Z" fill="#E214FF"/>
<path d="M92.9094 48.2474C92.7823 48.2476 92.6586 48.2066 92.5569 48.1305L92.5506 48.1257L91.2231 47.1107C91.1614 47.0637 91.1096 47.0051 91.0706 46.9381C91.0317 46.8711 91.0063 46.7971 90.996 46.7203C90.9858 46.6435 90.9908 46.5655 91.0107 46.4906C91.0307 46.4157 91.0653 46.3456 91.1125 46.2841C91.1597 46.2226 91.2185 46.171 91.2857 46.1322C91.3529 46.0935 91.427 46.0684 91.5039 46.0583C91.5809 46.0482 91.659 46.0534 91.7339 46.0735C91.8088 46.0937 91.879 46.1284 91.9405 46.1757L92.8004 46.8341L94.8323 44.1876C94.8795 44.1263 94.9382 44.0747 95.0053 44.036C95.0723 43.9973 95.1464 43.9722 95.2232 43.9621C95.3 43.952 95.378 43.9571 95.4528 43.977C95.5276 43.997 95.5978 44.0316 95.6592 44.0786L95.6466 44.0958L95.6595 44.0789C95.7835 44.174 95.8646 44.3144 95.8851 44.4692C95.9056 44.624 95.8637 44.7806 95.7687 44.9047L93.3786 48.0175C93.3233 48.0893 93.2523 48.1473 93.1709 48.1872C93.0895 48.227 93 48.2477 92.9094 48.2474V48.2474Z" fill="white"/>
<path d="M93.4693 68.2258C96.589 68.2258 99.1181 65.7002 99.1181 62.5846C99.1181 59.469 96.589 56.9434 93.4693 56.9434C90.3495 56.9434 87.8205 59.469 87.8205 62.5846C87.8205 65.7002 90.3495 68.2258 93.4693 68.2258Z" fill="#E214FF"/>
<path d="M92.9094 64.7367C92.7823 64.7369 92.6586 64.6959 92.5569 64.6197L92.5506 64.615L91.2231 63.6C91.1614 63.553 91.1096 63.4943 91.0706 63.4274C91.0317 63.3604 91.0063 63.2863 90.996 63.2096C90.9858 63.1328 90.9908 63.0547 91.0107 62.9799C91.0307 62.905 91.0653 62.8348 91.1125 62.7733C91.1597 62.7118 91.2185 62.6602 91.2857 62.6215C91.3529 62.5827 91.427 62.5576 91.5039 62.5476C91.5809 62.5375 91.659 62.5427 91.7339 62.5628C91.8088 62.5829 91.879 62.6176 91.9405 62.6649L92.8004 63.3233L94.8323 60.6769C94.8795 60.6155 94.9382 60.564 95.0053 60.5253C95.0723 60.4866 95.1464 60.4615 95.2232 60.4514C95.3 60.4412 95.378 60.4463 95.4528 60.4663C95.5276 60.4863 95.5978 60.5208 95.6592 60.5679L95.6466 60.585L95.6595 60.5681C95.7835 60.6633 95.8646 60.8037 95.8851 60.9585C95.9056 61.1133 95.8637 61.2699 95.7687 61.3939L93.3786 64.5068C93.3233 64.5785 93.2523 64.6366 93.1709 64.6764C93.0895 64.7163 93 64.7369 92.9094 64.7367V64.7367Z" fill="white"/>
<path d="M96.511 87.3201C99.6307 87.3201 102.16 84.7944 102.16 81.6788C102.16 78.5633 99.6307 76.0376 96.511 76.0376C93.3912 76.0376 90.8622 78.5633 90.8622 81.6788C90.8622 84.7944 93.3912 87.3201 96.511 87.3201Z" fill="#E214FF"/>
<path d="M95.9511 83.8304C95.824 83.8306 95.7003 83.7896 95.5986 83.7135L95.5923 83.7087L94.2648 82.6937C94.2031 82.6467 94.1513 82.5881 94.1123 82.5211C94.0733 82.4541 94.048 82.3801 94.0377 82.3033C94.0275 82.2265 94.0324 82.1485 94.0524 82.0736C94.0724 81.9988 94.107 81.9286 94.1542 81.8671C94.2013 81.8056 94.2602 81.754 94.3274 81.7152C94.3945 81.6765 94.4687 81.6514 94.5456 81.6413C94.6226 81.6312 94.7007 81.6364 94.7756 81.6565C94.8505 81.6767 94.9207 81.7114 94.9822 81.7587L95.842 82.4171L97.874 79.7706C97.9211 79.7093 97.9799 79.6578 98.047 79.6191C98.114 79.5804 98.1881 79.5552 98.2649 79.5451C98.3416 79.535 98.4197 79.5401 98.4945 79.5601C98.5693 79.5801 98.6395 79.6146 98.7009 79.6616L98.6883 79.6788L98.7012 79.6619C98.8252 79.7571 98.9063 79.8974 98.9268 80.0522C98.9473 80.2071 98.9054 80.3637 98.8104 80.4877L96.4203 83.6005C96.365 83.6723 96.2939 83.7303 96.2126 83.7702C96.1312 83.81 96.0417 83.8307 95.9511 83.8304V83.8304Z" fill="white"/>
<path d="M120.962 108.531C110.172 63.2837 119.171 23.3047 123.543 8.22091C123.803 7.31675 123.849 6.36456 123.678 5.43946C123.507 4.51435 123.123 3.64163 122.556 2.89013C121.989 2.13863 121.255 1.52889 120.412 1.10902C119.569 0.689155 118.64 0.470637 117.698 0.470703H12.9611C12.0021 0.471641 11.0569 0.698476 10.2022 1.13278C9.3475 1.56708 8.60744 2.19661 8.04215 2.97021C3.81424 8.77635 -4.95873 28.0303 4.83988 81.3053C10.08 109.807 10.002 129.239 8.28996 142.04C7.32947 149.248 5.84789 154.351 4.50508 157.792L4.36186 158.156C4.07904 158.853 3.93158 159.596 3.92734 160.348C3.91743 161.196 4.08775 162.037 4.42702 162.815C4.7663 163.593 5.26683 164.29 5.89563 164.861C6.30563 165.244 6.76969 165.566 7.27303 165.815C7.69093 166.028 8.13304 166.19 8.58976 166.297C9.05483 166.411 9.53193 166.467 10.0107 166.466H113.131C113.145 166.466 113.179 166.471 113.24 166.471C113.901 166.471 117.346 166.28 120.471 162.522C125.207 156.824 129.139 142.834 120.962 108.531ZM119.706 161.823C116.642 165.538 113.318 165.442 113.158 165.438H10.0107C9.18486 165.438 8.37168 165.235 7.64221 164.849C6.91274 164.462 6.28919 163.903 5.82604 163.22C5.41866 162.63 5.14504 161.958 5.02423 161.252C4.90342 160.545 4.93833 159.82 5.12652 159.128C5.17579 158.927 5.23968 158.73 5.31768 158.538C6.85144 154.602 7.98828 150.523 8.71133 146.362C11.1621 133.018 11.6183 112.428 5.85659 81.1187C-3.86797 28.2386 4.73125 9.27538 8.8764 3.57773C9.34669 2.93633 9.96144 2.41439 10.671 2.05407C11.3806 1.69375 12.1651 1.50514 12.9611 1.50349H117.698C118.48 1.50294 119.25 1.68379 119.95 2.03174C120.649 2.3797 121.258 2.88524 121.729 3.50848C122.199 4.13172 122.518 4.85559 122.66 5.62295C122.802 6.39031 122.763 7.18016 122.548 7.93016C118.155 23.0964 109.112 63.2837 119.958 108.769C128.023 142.595 124.273 156.29 119.706 161.823Z" fill="#3F3D56"/>
<path d="M71.2041 49.7402H17.2425C16.1456 49.7402 15.0935 49.305 14.3178 48.5304C13.5422 47.7557 13.1064 46.7051 13.1064 45.6096C13.1064 44.5141 13.5422 43.4635 14.3178 42.6888C15.0935 41.9142 16.1456 41.479 17.2425 41.479H71.2041C72.3011 41.479 73.3531 41.9142 74.1288 42.6888C74.9045 43.4635 75.3403 44.5141 75.3403 45.6096C75.3403 46.7051 74.9045 47.7557 74.1288 48.5304C73.3531 49.305 72.3011 49.7402 71.2041 49.7402V49.7402Z" fill="#CCCCCC"/>
<path d="M71.2041 67.5317H17.2425C16.1456 67.5317 15.0935 67.0965 14.3178 66.3219C13.5422 65.5472 13.1064 64.4966 13.1064 63.4011C13.1064 62.3056 13.5422 61.255 14.3178 60.4803C15.0935 59.7057 16.1456 59.2705 17.2425 59.2705H71.2041C72.3011 59.2705 73.3531 59.7057 74.1288 60.4803C74.9045 61.255 75.3403 62.3056 75.3403 63.4011C75.3403 64.4966 74.9045 65.5472 74.1288 66.3219C73.3531 67.0965 72.3011 67.5317 71.2041 67.5317V67.5317Z" fill="#CCCCCC"/>
<path d="M75.5494 85.7573H21.5877C20.4908 85.7573 19.4387 85.3221 18.6631 84.5475C17.8874 83.7728 17.4516 82.7222 17.4516 81.6267C17.4516 80.5312 17.8874 79.4806 18.6631 78.7059C19.4387 77.9313 20.4908 77.4961 21.5877 77.4961H75.5494C76.6463 77.4961 77.6984 77.9313 78.474 78.7059C79.2497 79.4806 79.6855 80.5312 79.6855 81.6267C79.6855 82.7222 79.2497 83.7728 78.474 84.5475C77.6984 85.3221 76.6463 85.7573 75.5494 85.7573V85.7573Z" fill="#CCCCCC"/>
<path d="M78.591 104.852H24.6294C23.5324 104.852 22.4804 104.416 21.7047 103.642C20.929 102.867 20.4933 101.816 20.4933 100.721C20.4933 99.6254 20.929 98.5748 21.7047 97.8001C22.4804 97.0255 23.5324 96.5903 24.6294 96.5903H78.591C79.688 96.5903 80.74 97.0255 81.5157 97.8001C82.2914 98.5748 82.7271 99.6254 82.7271 100.721C82.7271 101.816 82.2914 102.867 81.5157 103.642C80.74 104.416 79.688 104.852 78.591 104.852Z" fill="#CCCCCC"/>
<path d="M78.6139 17.6679H39.8377C39.2942 17.6685 38.7559 17.5621 38.2536 17.3547C37.7513 17.1474 37.2948 16.8432 36.9103 16.4596C36.5257 16.076 36.2207 15.6205 36.0126 15.119C35.8045 14.6176 35.6973 14.0801 35.6973 13.5373C35.6973 12.9945 35.8045 12.4571 36.0126 11.9557C36.2207 11.4542 36.5257 10.9987 36.9103 10.6151C37.2948 10.2315 37.7513 9.92728 38.2536 9.71995C38.7559 9.51261 39.2942 9.40618 39.8377 9.40674H78.6139C79.7109 9.40674 80.7629 9.84193 81.5386 10.6166C82.3143 11.3912 82.7501 12.4418 82.7501 13.5373C82.7501 14.6328 82.3143 15.6835 81.5386 16.4581C80.7629 17.2328 79.7109 17.6679 78.6139 17.6679Z" fill="#E214FF"/>
<path d="M99.9871 106.362C103.107 106.362 105.636 103.836 105.636 100.72C105.636 97.6048 103.107 95.0791 99.9871 95.0791C96.8674 95.0791 94.3383 97.6048 94.3383 100.72C94.3383 103.836 96.8674 106.362 99.9871 106.362Z" fill="#CCCCCC"/>
<path d="M81.1982 123.511H27.2365C26.1396 123.511 25.0875 123.076 24.3119 122.301C23.5362 121.526 23.1004 120.476 23.1004 119.38C23.1004 118.285 23.5362 117.234 24.3119 116.459C25.0875 115.685 26.1396 115.25 27.2365 115.25H81.1982C82.2951 115.25 83.3472 115.685 84.1228 116.459C84.8985 117.234 85.3343 118.285 85.3343 119.38C85.3343 120.476 84.8985 121.526 84.1228 122.301C83.3472 123.076 82.2951 123.511 81.1982 123.511Z" fill="#CCCCCC"/>
<path d="M102.594 125.021C105.714 125.021 108.243 122.496 108.243 119.38C108.243 116.264 105.714 113.739 102.594 113.739C99.4745 113.739 96.9455 116.264 96.9455 119.38C96.9455 122.496 99.4745 125.021 102.594 125.021Z" fill="#CCCCCC"/>
</svg>
