<svg width="103" height="22" viewBox="0 0 103 22" fill="none" xmlns="http://www.w3.org/2000/svg">
<path d="M16.3405 20.0335C16.2055 20.034 16.0738 19.992 15.9641 19.9132L10.8084 16.1755L5.6528 19.9132C5.54265 19.9931 5.40995 20.0359 5.27389 20.0354C5.13782 20.0349 5.00543 19.9912 4.89587 19.9105C4.78631 19.8298 4.70524 19.7164 4.6644 19.5866C4.62355 19.4568 4.62504 19.3174 4.66865 19.1885L6.67944 13.2327L1.46807 9.65888C1.35519 9.58156 1.27 9.47016 1.22493 9.34097C1.17987 9.21178 1.1773 9.07156 1.2176 8.94081C1.2579 8.81005 1.33896 8.69561 1.44894 8.6142C1.55891 8.5328 1.69204 8.48869 1.82886 8.48833H8.25808L10.1983 2.51731C10.2401 2.3884 10.3217 2.27604 10.4313 2.19635C10.5409 2.11665 10.6729 2.07373 10.8084 2.07373C10.944 2.07373 11.076 2.11665 11.1856 2.19635C11.2952 2.27604 11.3768 2.3884 11.4186 2.51731L13.3588 8.49034H19.788C19.925 8.49027 20.0584 8.53407 20.1687 8.61532C20.2791 8.69657 20.3604 8.811 20.401 8.94186C20.4416 9.07271 20.4391 9.21312 20.3941 9.3425C20.3491 9.47189 20.2638 9.58347 20.1508 9.66089L14.9375 13.2327L16.947 19.1869C16.9796 19.2833 16.9888 19.386 16.9738 19.4867C16.9588 19.5873 16.92 19.6829 16.8608 19.7656C16.8015 19.8484 16.7234 19.9158 16.633 19.9624C16.5425 20.0089 16.4423 20.0333 16.3405 20.0335Z" fill="#FFE814"/>
<g clip-path="url(#clip0_242_2)">
<path d="M36.8653 20.033C36.7303 20.0336 36.5986 19.9915 36.4889 19.9128L31.3332 16.175L26.1776 19.9128C26.0674 19.9927 25.9347 20.0354 25.7987 20.0349C25.6626 20.0345 25.5302 19.9907 25.4207 19.91C25.3111 19.8293 25.23 19.7159 25.1892 19.5861C25.1483 19.4563 25.1498 19.3169 25.1934 19.188L27.2042 13.2322L21.9929 9.6584C21.88 9.58107 21.7948 9.46968 21.7497 9.34048C21.7046 9.21129 21.7021 9.07107 21.7424 8.94032C21.7827 8.80956 21.8637 8.69512 21.9737 8.61371C22.0837 8.53231 22.2168 8.4882 22.3536 8.48784H28.7829L30.7231 2.51682C30.7649 2.38791 30.8464 2.27555 30.9561 2.19586C31.0657 2.11617 31.1977 2.07324 31.3332 2.07324C31.4687 2.07324 31.6008 2.11617 31.7104 2.19586C31.82 2.27555 31.9016 2.38791 31.9434 2.51682L33.8836 8.48985H40.3128C40.4498 8.48978 40.5832 8.53358 40.6935 8.61483C40.8038 8.69608 40.8852 8.81051 40.9258 8.94137C40.9663 9.07222 40.9639 9.21263 40.9189 9.34202C40.8739 9.4714 40.7886 9.58298 40.6756 9.6604L35.4622 13.2322L37.4718 19.1864C37.5044 19.2828 37.5135 19.3855 37.4985 19.4862C37.4835 19.5868 37.4448 19.6824 37.3856 19.7652C37.3263 19.8479 37.2482 19.9153 37.1577 19.9619C37.0673 20.0085 36.967 20.0328 36.8653 20.033Z" fill="#FFE814"/>
</g>
<path d="M57.39 20.033C57.255 20.0336 57.1233 19.9915 57.0136 19.9128L51.8579 16.175L46.7023 19.9128C46.5922 19.9927 46.4595 20.0354 46.3234 20.0349C46.1873 20.0345 46.0549 19.9907 45.9454 19.91C45.8358 19.8293 45.7547 19.7159 45.7139 19.5861C45.6731 19.4563 45.6745 19.3169 45.7182 19.188L47.7289 13.2322L42.5176 9.6584C42.4047 9.58107 42.3195 9.46968 42.2744 9.34048C42.2294 9.21129 42.2268 9.07107 42.2671 8.94032C42.3074 8.80956 42.3885 8.69512 42.4984 8.61371C42.6084 8.53231 42.7415 8.4882 42.8784 8.48784H49.3076L51.2478 2.51682C51.2896 2.38791 51.3712 2.27555 51.4808 2.19586C51.5904 2.11617 51.7224 2.07324 51.8579 2.07324C51.9935 2.07324 52.1255 2.11617 52.2351 2.19586C52.3447 2.27555 52.4263 2.38791 52.4681 2.51682L54.4083 8.48985H60.8375C60.9745 8.48978 61.1079 8.53358 61.2182 8.61483C61.3285 8.69608 61.4099 8.81051 61.4505 8.94137C61.4911 9.07222 61.4886 9.21263 61.4436 9.34202C61.3986 9.4714 61.3133 9.58298 61.2003 9.6604L55.987 13.2322L57.9965 19.1864C58.0291 19.2828 58.0383 19.3855 58.0233 19.4862C58.0083 19.5868 57.9695 19.6824 57.9103 19.7652C57.851 19.8479 57.7729 19.9153 57.6825 19.9619C57.592 20.0085 57.4918 20.0328 57.39 20.033Z" fill="#FFE814"/>
<g clip-path="url(#clip1_242_2)">
<path d="M77.1251 20.033C76.9968 20.0336 76.8717 19.9915 76.7675 19.9128L71.8696 16.175L66.9717 19.9128C66.8671 19.9927 66.741 20.0354 66.6118 20.0349C66.4825 20.0345 66.3567 19.9907 66.2526 19.91C66.1486 19.8293 66.0716 19.7159 66.0328 19.5861C65.9939 19.4563 65.9954 19.3169 66.0368 19.188L67.947 13.2322L62.9962 9.6584C62.889 9.58107 62.8081 9.46968 62.7653 9.34048C62.7224 9.21129 62.72 9.07107 62.7583 8.94032C62.7966 8.80956 62.8736 8.69512 62.9781 8.61371C63.0825 8.53231 63.209 8.4882 63.339 8.48784H69.4468L71.29 2.51682C71.3297 2.38791 71.4072 2.27555 71.5113 2.19586C71.6154 2.11617 71.7409 2.07324 71.8696 2.07324C71.9983 2.07324 72.1238 2.11617 72.2279 2.19586C72.332 2.27555 72.4095 2.38791 72.4492 2.51682L74.2924 8.48985H80.4002C80.5303 8.48978 80.6571 8.53358 80.7619 8.61483C80.8667 8.69608 80.944 8.81051 80.9825 8.94137C81.021 9.07222 81.0188 9.21263 80.976 9.34202C80.9332 9.4714 80.8522 9.58298 80.7449 9.6604L75.7922 13.2322L77.7013 19.1864C77.7322 19.2828 77.7409 19.3855 77.7266 19.4862C77.7124 19.5868 77.6756 19.6824 77.6193 19.7652C77.563 19.8479 77.4888 19.9153 77.4029 19.9619C77.317 20.0085 77.2217 20.0328 77.1251 20.033Z" fill="#FFE814"/>
</g>
<path d="M97.6498 20.0335C97.5216 20.034 97.3964 19.992 97.2922 19.9132L92.3944 16.1755L87.4965 19.9132C87.3919 19.9931 87.2658 20.0359 87.1365 20.0354C87.0073 20.0349 86.8815 19.9912 86.7774 19.9105C86.6733 19.8298 86.5963 19.7164 86.5575 19.5866C86.5187 19.4568 86.5201 19.3174 86.5616 19.1885L88.4718 13.2327L83.521 9.65888C83.4138 9.58156 83.3328 9.47016 83.29 9.34097C83.2472 9.21178 83.2448 9.07156 83.2831 8.94081C83.3214 8.81005 83.3984 8.69561 83.5028 8.6142C83.6073 8.5328 83.7338 8.48869 83.8638 8.48833H89.9715L91.8148 2.51731C91.8545 2.3884 91.9319 2.27604 92.0361 2.19635C92.1402 2.11665 92.2656 2.07373 92.3944 2.07373C92.5231 2.07373 92.6486 2.11665 92.7527 2.19635C92.8568 2.27604 92.9343 2.3884 92.974 2.51731L94.8172 8.49034H100.925C101.055 8.49027 101.182 8.53407 101.287 8.61532C101.391 8.69657 101.469 8.811 101.507 8.94186C101.546 9.07271 101.544 9.21312 101.501 9.3425C101.458 9.47189 101.377 9.58347 101.27 9.66089L96.3169 13.2327L98.226 19.1869C98.257 19.2833 98.2657 19.386 98.2514 19.4867C98.2372 19.5873 98.2004 19.6829 98.1441 19.7656C98.0878 19.8484 98.0136 19.9158 97.9277 19.9624C97.8417 20.0089 97.7465 20.0333 97.6498 20.0335Z" fill="#FFE814"/>
<defs>
<clipPath id="clip0_242_2">
<rect width="20.5248" height="20.5248" fill="white" transform="translate(21.0709 0.791016)"/>
</clipPath>
<clipPath id="clip1_242_2">
<rect width="19.4985" height="20.5248" fill="white" transform="translate(62.1204 0.791016)"/>
</clipPath>
</defs>
</svg>
