<svg width="189" height="49" viewBox="0 0 189 49" fill="none" xmlns="http://www.w3.org/2000/svg">
<g clip-path="url(#clip0_66_613)">
<path d="M60.7291 37.9173L63.0768 32.4748C65.6138 34.3646 68.9838 35.3473 72.316 35.3473C74.7773 35.3473 76.3298 34.4024 76.3298 32.9662C76.2919 28.9599 61.6 32.0969 61.4864 22.0433C61.4485 16.941 65.9924 13.0103 72.4296 13.0103C76.2541 13.0103 80.0785 13.9551 82.8048 16.1095L80.6086 21.6654C78.1095 20.078 75.0045 18.9441 72.051 18.9441C70.0441 18.9441 68.7188 19.889 68.7188 21.0984C68.7566 25.0291 83.5621 22.8748 83.7136 32.4748C83.7136 37.6906 79.2833 41.3567 72.9219 41.3567C68.2644 41.3567 63.9856 40.2606 60.7291 37.9173ZM150.812 30.5095C149.638 32.5504 147.442 33.9488 144.905 33.9488C141.156 33.9488 138.127 30.9252 138.127 27.1835C138.127 23.4417 141.156 20.4181 144.905 20.4181C147.442 20.4181 149.638 21.8165 150.812 23.8575L157.287 20.2669C154.863 15.9583 150.206 13.0103 144.905 13.0103C137.066 13.0103 130.705 19.3599 130.705 27.1835C130.705 35.0071 137.066 41.3567 144.905 41.3567C150.244 41.3567 154.863 38.4465 157.287 34.1L150.812 30.5095V30.5095ZM86.9701 1.25592H95.0733V40.8276H86.9701V1.25592ZM160.467 1.25592V40.8276H168.571V28.9599L178.189 40.8276H188.564L176.333 26.7299L187.655 13.5772H177.734L168.571 24.5V1.25592H160.467ZM119.156 30.5851C117.982 32.5126 115.559 33.9488 112.832 33.9488C109.084 33.9488 106.054 30.9252 106.054 27.1835C106.054 23.4417 109.084 20.4181 112.832 20.4181C115.559 20.4181 117.982 21.9299 119.156 23.8953V30.5851ZM119.156 13.5772V16.7898C117.831 14.5599 114.536 13.0103 111.091 13.0103C103.972 13.0103 98.3676 19.2843 98.3676 27.1457C98.3676 35.0071 103.972 41.3567 111.091 41.3567C114.536 41.3567 117.831 39.8071 119.156 37.5772V40.7898H127.259V13.5772H119.156Z" fill="black"/>
<path d="M10.6329 30.5472C10.6329 33.3063 8.39886 35.5362 5.63466 35.5362C2.87046 35.5362 0.636383 33.3063 0.636383 30.5472C0.636383 27.7881 2.87046 25.5582 5.63466 25.5582H10.6329V30.5472ZM13.1321 30.5472C13.1321 27.7881 15.3662 25.5582 18.1304 25.5582C20.8946 25.5582 23.1286 27.7881 23.1286 30.5472V43.0196C23.1286 45.7787 20.8946 48.0086 18.1304 48.0086C15.3662 48.0086 13.1321 45.7787 13.1321 43.0196V30.5472Z" fill="black"/>
<path d="M18.1301 10.5157C15.3659 10.5157 13.1319 8.28581 13.1319 5.52676C13.1319 2.7677 15.3659 0.537781 18.1301 0.537781C20.8943 0.537781 23.1284 2.7677 23.1284 5.52676V10.5157H18.1301ZM18.1301 13.048C20.8943 13.048 23.1284 15.2779 23.1284 18.037C23.1284 20.796 20.8943 23.026 18.1301 23.026H5.59658C2.83238 23.026 0.598297 20.796 0.598297 18.037C0.598297 15.2779 2.83238 13.048 5.59658 13.048H18.1301Z" fill="black"/>
<path d="M38.1611 18.037C38.1611 15.2779 40.3952 13.048 43.1594 13.048C45.9236 13.048 48.1577 15.2779 48.1577 18.037C48.1577 20.796 45.9236 23.026 43.1594 23.026H38.1611V18.037ZM35.662 18.037C35.662 20.796 33.4279 23.026 30.6637 23.026C27.8995 23.026 25.6654 20.796 25.6654 18.037V5.52676C25.6654 2.7677 27.8995 0.537781 30.6637 0.537781C33.4279 0.537781 35.662 2.7677 35.662 5.52676V18.037V18.037Z" fill="black"/>
<path d="M30.6637 38.0307C33.4279 38.0307 35.662 40.2606 35.662 43.0196C35.662 45.7787 33.4279 48.0086 30.6637 48.0086C27.8995 48.0086 25.6654 45.7787 25.6654 43.0196V38.0307H30.6637ZM30.6637 35.5362C27.8995 35.5362 25.6654 33.3063 25.6654 30.5472C25.6654 27.7881 27.8995 25.5582 30.6637 25.5582H43.1973C45.9615 25.5582 48.1956 27.7881 48.1956 30.5472C48.1956 33.3063 45.9615 35.5362 43.1973 35.5362H30.6637Z" fill="black"/>
</g>
<defs>
<clipPath id="clip0_66_613">
<rect width="188.571" height="48" fill="white" transform="translate(0.333252 0.311035)"/>
</clipPath>
</defs>
</svg>
