<svg width="117" height="49" viewBox="0 0 117 49" fill="none" xmlns="http://www.w3.org/2000/svg">
<path fill-rule="evenodd" clip-rule="evenodd" d="M116.131 25.1121C116.131 16.9092 112.158 10.4365 104.564 10.4365C96.9376 10.4365 92.3235 16.9092 92.3235 25.048C92.3235 34.6929 97.7707 39.5634 105.589 39.5634C109.402 39.5634 112.286 38.6982 114.465 37.4806V31.072C112.286 32.1615 109.787 32.8344 106.615 32.8344C103.506 32.8344 100.751 31.7449 100.398 27.9639H116.067C116.067 27.5473 116.131 25.8811 116.131 25.1121ZM100.302 22.068C100.302 18.4472 102.513 16.9412 104.532 16.9412C106.486 16.9412 108.569 18.4472 108.569 22.068H100.302Z" fill="black"/>
<path fill-rule="evenodd" clip-rule="evenodd" d="M79.955 10.4365C76.8148 10.4365 74.7961 11.9105 73.6746 12.9359L73.258 10.9492H66.2086V48.311L74.2193 46.6128L74.2514 37.5447C75.4049 38.3778 77.1032 39.5634 79.9229 39.5634C85.6586 39.5634 90.8815 34.9492 90.8815 24.7917C90.8495 15.4993 85.5625 10.4365 79.955 10.4365ZM78.0324 32.514C76.1419 32.514 75.0204 31.8411 74.2514 31.008L74.2193 19.1201C75.0524 18.1909 76.206 17.55 78.0324 17.55C80.9483 17.55 82.967 20.8184 82.967 25.016C82.967 29.3097 80.9803 32.514 78.0324 32.514Z" fill="black"/>
<path fill-rule="evenodd" clip-rule="evenodd" d="M55.1859 8.54601L63.2287 6.81571V0.311035L55.1859 2.0093V8.54601Z" fill="black"/>
<path d="M63.2287 10.9813H55.1859V39.0186H63.2287V10.9813Z" fill="black"/>
<path fill-rule="evenodd" clip-rule="evenodd" d="M46.5664 13.3524L46.0538 10.9812H39.1325V39.0186H47.1432V20.0173C49.0337 17.55 52.238 17.9986 53.2313 18.3511V10.9812C52.206 10.5967 48.457 9.89178 46.5664 13.3524Z" fill="black"/>
<path fill-rule="evenodd" clip-rule="evenodd" d="M30.5451 4.02795L22.7267 5.69418L22.6946 31.3604C22.6946 36.1027 26.2514 39.5954 30.9937 39.5954C33.6212 39.5954 35.5438 39.1147 36.6012 38.538V32.0333C35.5758 32.4499 30.513 33.9238 30.513 29.1815V17.8063H36.6012V10.9812H30.513L30.5451 4.02795Z" fill="black"/>
<path fill-rule="evenodd" clip-rule="evenodd" d="M8.88421 19.1201C8.88421 17.8704 9.90958 17.3898 11.6078 17.3898C14.0431 17.3898 17.1192 18.1268 19.5544 19.4405V11.9105C16.8949 10.8531 14.2674 10.4365 11.6078 10.4365C5.10317 10.4365 0.777405 13.8331 0.777405 19.5046C0.777405 28.3484 12.9536 26.9385 12.9536 30.7516C12.9536 32.2256 11.6719 32.7062 9.87754 32.7062C7.21799 32.7062 3.82146 31.6168 1.12987 30.1428V37.769C4.10985 39.0507 7.12186 39.5954 9.87754 39.5954C16.5424 39.5954 21.1245 36.295 21.1245 30.5594C21.0925 21.0106 8.88421 22.7089 8.88421 19.1201Z" fill="black"/>
</svg>
