<svg width="58" height="25" viewBox="0 0 58 25" fill="none" xmlns="http://www.w3.org/2000/svg">
<path fill-rule="evenodd" clip-rule="evenodd" d="M57.9698 12.5124C57.9698 8.42879 55.9918 5.20654 52.2112 5.20654C48.4147 5.20654 46.1177 8.42879 46.1177 12.4805C46.1177 17.282 48.8295 19.7067 52.7217 19.7067C54.6199 19.7067 56.0556 19.276 57.1403 18.6698V15.4795C56.0556 16.0218 54.8114 16.3568 53.2321 16.3568C51.6848 16.3568 50.313 15.8144 50.1375 13.9321H57.9379C57.9379 13.7248 57.9698 12.8953 57.9698 12.5124ZM50.0896 10.997C50.0896 9.19447 51.1903 8.44474 52.1953 8.44474C53.1683 8.44474 54.2052 9.19447 54.2052 10.997H50.0896Z" fill="#635BFF"/>
<path fill-rule="evenodd" clip-rule="evenodd" d="M39.9603 5.20654C38.397 5.20654 37.3921 5.94032 36.8338 6.45078L36.6264 5.46177H33.117V24.0615L37.1049 23.216L37.1209 18.7017C37.6951 19.1164 38.5406 19.7067 39.9443 19.7067C42.7997 19.7067 45.3998 17.4096 45.3998 12.3529C45.3839 7.72692 42.7518 5.20654 39.9603 5.20654ZM39.0032 16.1973C38.062 16.1973 37.5037 15.8623 37.1209 15.4475L37.1049 9.52946C37.5197 9.06686 38.0939 8.74783 39.0032 8.74783C40.4548 8.74783 41.4598 10.3749 41.4598 12.4646C41.4598 14.6021 40.4708 16.1973 39.0032 16.1973Z" fill="#635BFF"/>
<path fill-rule="evenodd" clip-rule="evenodd" d="M27.6296 4.26561L31.6335 3.40421V0.166016L27.6296 1.01146V4.26561Z" fill="#635BFF"/>
<path d="M31.6335 5.47803H27.6296V19.4358H31.6335V5.47803Z" fill="#635BFF"/>
<path fill-rule="evenodd" clip-rule="evenodd" d="M23.3386 6.65781L23.0834 5.47739H19.6378V19.4351H23.6257V9.97577C24.5669 8.74749 26.1621 8.97081 26.6566 9.14628V5.47739C26.1461 5.28597 24.2798 4.93503 23.3386 6.65781Z" fill="#635BFF"/>
<path fill-rule="evenodd" clip-rule="evenodd" d="M15.3628 2.01611L11.4705 2.8456L11.4546 15.6229C11.4546 17.9838 13.2252 19.7225 15.5861 19.7225C16.8941 19.7225 17.8512 19.4832 18.3776 19.1961V15.9579C17.8672 16.1653 15.3468 16.8991 15.3468 14.5382V8.87535H18.3776V5.47764H15.3468L15.3628 2.01611Z" fill="#635BFF"/>
<path fill-rule="evenodd" clip-rule="evenodd" d="M4.57939 9.52946C4.57939 8.90734 5.08984 8.66807 5.93528 8.66807C7.14761 8.66807 8.67898 9.03496 9.89131 9.68898V5.94032C8.56732 5.41392 7.25928 5.20654 5.93528 5.20654C2.69708 5.20654 0.543601 6.89743 0.543601 9.72088C0.543601 14.1236 6.60526 13.4217 6.60526 15.3199C6.60526 16.0537 5.96719 16.293 5.07389 16.293C3.7499 16.293 2.05901 15.7506 0.71907 15.0169L0.71907 18.8134C2.20258 19.4514 3.70204 19.7226 5.07389 19.7226C8.39185 19.7226 10.6729 18.0796 10.6729 15.2242C10.657 10.4706 4.57939 11.3161 4.57939 9.52946Z" fill="#635BFF"/>
</svg>
